<?xml version="1.0" encoding="UTF-8"?>
<svg width="70px" height="70px" viewBox="0 0 70 70" version="1.1" xmlns="http://www.w3.org/2000/svg" xmlns:xlink="http://www.w3.org/1999/xlink">
    <!-- Generator: Sketch 47.1 (45422) - http://www.bohemiancoding.com/sketch -->
    <title>1</title>
    <desc>Created with Sketch.</desc>
    <defs></defs>
    <g id="Page-1" stroke="none" stroke-width="1" fill="none" fill-rule="evenodd">
        <g id="1">
            <g id="global">
                <circle id="Oval-8" fill="#D0021B" cx="35" cy="35" r="35"></circle>
                <path d="M35,13 C23.421125,13 14,22.421125 14,34 C14,45.578875 23.421125,55 35,55 C46.578875,55 56,45.578875 56,34 C56,22.421125 46.578875,13 35,13 Z M29.054375,39.725125 C28.245875,35.95825 28.24325,32.06275 29.049125,28.295875 C31.007375,28.563625 32.986625,28.75 35,28.75 C37.013375,28.75 38.99,28.563625 40.94825,28.295875 C41.754125,32.06275 41.7515,35.95825 40.943,39.725125 C36.997625,39.184375 32.997125,39.184375 29.054375,39.725125 Z M40.263125,42.271375 C39.186875,45.647125 37.428125,48.847 35,51.682 C32.56925,48.847 30.813125,45.647125 29.736875,42.26875 C33.228125,41.81725 36.76925,41.819875 40.263125,42.271375 Z M29.73425,25.728625 C30.8105,22.352875 32.56925,19.153 35,16.318 C37.428125,19.153 39.186875,22.352875 40.263125,25.728625 C36.76925,26.180125 33.228125,26.180125 29.73425,25.728625 Z M43.547,27.889 C46.195625,27.356125 48.773375,26.547625 51.282875,25.513375 C52.611125,28.057 53.375,30.93925 53.375,34 C53.375,37.06075 52.611125,39.945625 51.282875,42.486625 C48.776,41.46025 46.190375,40.654375 43.544375,40.12675 C44.389625,36.092125 44.389625,31.92625 43.547,27.889 Z M49.868,23.245375 C47.60525,24.143125 45.2795,24.8545 42.893375,25.32175 C41.880125,21.985375 40.271,18.79075 38.06075,15.900625 C42.90125,16.719625 47.096,19.426 49.868,23.245375 Z M31.934,15.900625 C29.72375,18.79075 28.11725,21.985375 27.104,25.32175 C24.7205,24.8545 22.39475,24.143125 20.132,23.245375 C22.901375,19.426 27.096125,16.719625 31.934,15.900625 Z M18.717125,25.516 C21.226625,26.547625 23.80175,27.35875 26.450375,27.891625 C25.60775,31.92625 25.60775,36.09475 26.453,40.129375 C23.807,40.657 21.221375,41.462875 18.717125,42.48925 C17.388875,39.945625 16.625,37.06075 16.625,34 C16.625,30.93925 17.388875,28.057 18.717125,25.516 Z M20.132,44.752 C22.39475,43.85425 24.7205,43.142875 27.104,42.675625 C28.11725,46.012 29.726375,49.206625 31.936625,52.09675 C27.096125,51.280375 22.901375,48.571375 20.132,44.752 Z M38.063375,52.099375 C40.273625,49.20925 41.88275,46.014625 42.896,42.67825 C45.2795,43.1455 47.60525,43.8595 49.868,44.754625 C47.096,48.574 42.90125,51.280375 38.063375,52.099375 Z" id="Shape" fill="#FFFFFF" fill-rule="nonzero"></path>
            </g>
        </g>
    </g>
</svg>