<?xml version="1.0" encoding="UTF-8"?>
<svg width="70px" height="70px" viewBox="0 0 70 70" version="1.1" xmlns="http://www.w3.org/2000/svg" xmlns:xlink="http://www.w3.org/1999/xlink">
    <!-- Generator: Sketch 47.1 (45422) - http://www.bohemiancoding.com/sketch -->
    <title>1</title>
    <desc>Created with Sketch.</desc>
    <defs></defs>
    <g id="Page-1" stroke="none" stroke-width="1" fill="none" fill-rule="evenodd">
        <g id="1">
            <g id="chat">
                <circle id="Oval-8" fill="#D0021B" cx="35" cy="35" r="35"></circle>
                <path d="M46.5562924,19 L17.4437924,19 C16.0962355,19 15,20.1006621 15,21.4535753 L15,38.9899576 C15,40.3428708 16.0962355,41.443618 17.4437924,41.443618 L19.3315417,41.443618 L19.3315417,47.9720175 C19.3315417,48.38767 19.5809134,48.7625572 19.9635321,48.9217035 C20.0901675,48.9744685 20.2232449,49 20.3551356,49 C20.6216294,49 20.8833765,48.8954911 21.0792631,48.6988987 L28.305365,41.4437031 L29.7551456,41.4437031 C30.3205973,41.4437031 30.7789091,40.9835407 30.7789091,40.4158057 C30.7789091,39.8479856 30.3204278,39.3878232 29.7551456,39.3878232 C29.7551456,39.3878232 27.8318807,39.3891849 27.811792,39.3912274 C27.5734394,39.4074824 27.3394944,39.5060339 27.1572547,39.6889244 L21.3790686,45.4904427 C21.3790686,45.4904427 21.3772886,40.3507855 21.3739828,40.3241477 C21.3277872,39.7993906 20.8893947,39.3878232 20.3547966,39.3878232 L17.4437924,39.3878232 C17.2252742,39.3878232 17.0476117,39.2093581 17.0476117,38.9900427 L17.0476117,21.4535753 C17.0476117,21.2341747 17.225359,21.0557948 17.4437924,21.0557948 L46.5562924,21.0557948 C46.7748105,21.0557948 46.9524731,21.2342598 46.9524731,21.4535753 L46.9524731,28.1815458 C46.9524731,28.7492809 47.4109543,29.2094432 47.9762365,29.2094432 C48.5415187,29.2094432 49,28.7492809 49,28.1815458 L49,21.4535753 C49,20.1006621 47.9037645,19 46.5562924,19 Z" id="Shape" fill="#FFFFFF" fill-rule="nonzero"></path>
                <path d="M55.5819925,31 L35.4180914,31 C34.0847905,31 33,32.0828773 33,33.4140133 L33,45.1839087 C33,46.514961 34.0847066,47.597922 35.4180914,47.597922 L48.0418853,47.597922 L53.1563527,52.703764 C53.3501791,52.8972636 53.6092574,53 53.8728646,53 C54.0033683,53 54.1350461,52.9747973 54.2603497,52.9229686 C54.6387767,52.7663939 54.8856936,52.3977317 54.8856936,51.988628 L54.8856936,47.5978382 L55.5819086,47.5978382 C56.9152095,47.5978382 58,46.514961 58,45.1838249 L58,33.4139296 C58.0000839,32.0828773 56.9153773,31 55.5819925,31 Z M55.9740905,45.1839087 C55.9740905,45.3996803 55.7982125,45.5752617 55.5820764,45.5752617 L53.8731163,45.5752617 C53.3400307,45.5752617 52.9040681,45.9865423 52.8640615,46.5085975 C52.8614615,46.5307022 52.8597841,49.5471513 52.8597841,49.5471513 L49.1816953,45.8751817 C49.1778372,45.8713302 49.1738114,45.8677298 49.1699533,45.8638782 C49.1555274,45.8498116 49.1418564,45.8375871 49.1289403,45.8266185 C48.95063,45.6705461 48.7177196,45.5751779 48.4620801,45.5751779 L35.4180914,45.5751779 C35.2018713,45.5751779 35.0260772,45.3995966 35.0260772,45.1838249 L35.0260772,33.4139296 C35.0260772,33.1980742 35.2019552,33.0225766 35.4180914,33.0225766 L55.5820764,33.0225766 C55.7982125,33.0225766 55.9740905,33.1981579 55.9740905,33.4139296 L55.9740905,45.1839087 L55.9740905,45.1839087 Z" id="Shape" fill="#FFFFFF" fill-rule="nonzero"></path>
                <path d="M45,39 C44.4480046,39 44,39.4480046 44,40 C44,40.5519954 44.4480046,41 45,41 C45.5520782,41 46,40.5519954 46,40 C46,39.4480046 45.5519954,39 45,39 Z" id="Shape" fill="#FFFFFF" fill-rule="nonzero"></path>
                <path d="M41.9604063,26 C41.9604063,26 23.0395937,26 23.0395937,26 C22.4654846,26 22,26.4476735 22,27 C22,27.5523265 22.4655707,28 23.0395937,28 L41.9604063,28 C42.5345154,28 43,27.5523265 43,27 C43,26.4476735 42.5345154,26 41.9604063,26 Z" id="Shape" fill="#FFFFFF" fill-rule="nonzero"></path>
                <path d="M29.9895799,32 L23.0104201,32 C22.4524219,32 22,32.4476735 22,33 C22,33.5523265 22.4525056,34 23.0104201,34 L29.9895799,34 C30.5476618,34 31,33.5523265 31,33 C31,32.4476735 30.5475781,32 29.9895799,32 Z" id="Shape" fill="#FFFFFF" fill-rule="nonzero"></path>
                <path d="M41,39 C40.4480874,39 40,39.4480046 40,40 C40,40.5519954 40.4480874,41 41,41 C41.5520782,41 42,40.5519954 42,40 C42,39.4480046 41.5520782,39 41,39 Z" id="Shape" fill="#FFFFFF" fill-rule="nonzero"></path>
                <path d="M50,39 C49.4480046,39 49,39.4480046 49,40 C49,40.5519954 49.4480046,41 50,41 C50.5520782,41 51,40.5519954 51,40 C51,39.4480046 50.5519954,39 50,39 Z" id="Shape" fill="#FFFFFF" fill-rule="nonzero"></path>
            </g>
        </g>
    </g>
</svg>