<?xml version="1.0" encoding="UTF-8"?>
<svg width="70px" height="70px" viewBox="0 0 70 70" version="1.1" xmlns="http://www.w3.org/2000/svg" xmlns:xlink="http://www.w3.org/1999/xlink">
    <!-- Generator: Sketch 47.1 (45422) - http://www.bohemiancoding.com/sketch -->
    <title>1</title>
    <desc>Created with Sketch.</desc>
    <defs></defs>
    <g id="Page-1" stroke="none" stroke-width="1" fill="none" fill-rule="evenodd">
        <g id="1">
            <circle id="Oval-8" fill="#D0021B" cx="35" cy="35" r="35"></circle>
            <g id="increase" transform="translate(14.000000, 12.000000)" fill-rule="nonzero" fill="#FFFFFF">
                <path d="M37.8563999,36.7147073 L34.4287377,36.7147073 L34.4287377,11.5018375 L37.8563999,11.5018375 C38.8697156,11.5018375 39.3811342,10.274143 38.6676314,9.55468064 L29.5272241,0.33786926 C29.0804756,-0.112623087 28.3515099,-0.112623087 27.9047613,0.33786926 L18.7643541,9.55468064 C18.0507751,10.2742191 18.562346,11.5018375 19.5755855,11.5018375 L23.0032477,11.5018375 L23.0032477,18.3573346 L14.8531522,18.3573346 C14.2221437,18.3573346 13.7105727,18.8689184 13.7105727,19.4999429 L13.7105727,25.2128318 L5.71274499,25.2128318 C5.08173644,25.2128318 4.57016553,25.7244156 4.57016553,26.35544 L4.57016553,36.7147835 L1.14257947,36.7147835 C0.511570914,36.7147835 0,37.2263673 0,37.8573917 C0,38.4884162 0.511570914,39 1.14257947,39 L37.8564761,39 C38.4874847,39 38.9990556,38.4884162 38.9990556,37.8573917 C38.9989794,37.2262911 38.4874085,36.7147073 37.8563999,36.7147073 Z M13.7105727,36.7147073 L6.85532446,36.7147073 L6.85532446,27.4978959 L13.7105727,27.4978959 L13.7105727,36.7147073 Z M23.0033239,36.7147073 L15.9957317,36.7147073 L15.9957317,20.6424749 L23.0033239,20.6424749 L23.0033239,36.7147073 Z M32.143655,10.3592292 L32.143655,36.7147073 L25.2884067,36.7147073 L25.2884067,10.3592292 C25.2884067,9.72820475 24.7768357,9.21662095 24.1458272,9.21662095 L22.3179286,9.21662095 L28.7160689,2.76499771 L35.1142092,9.21662095 L33.2863106,9.21662095 C32.6552259,9.21669712 32.143655,9.72828092 32.143655,10.3592292 Z" id="Shape"></path>
            </g>
        </g>
    </g>
</svg>