<?xml version="1.0" encoding="UTF-8"?>
<svg width="70px" height="70px" viewBox="0 0 70 70" version="1.1" xmlns="http://www.w3.org/2000/svg" xmlns:xlink="http://www.w3.org/1999/xlink">
    <!-- Generator: Sketch 47.1 (45422) - http://www.bohemiancoding.com/sketch -->
    <title>1</title>
    <desc>Created with Sketch.</desc>
    <defs></defs>
    <g id="Page-1" stroke="none" stroke-width="1" fill="none" fill-rule="evenodd">
        <g id="1">
            <circle id="Oval-8" fill="#D0021B" cx="35" cy="35" r="35"></circle>
            <g id="edit-file" transform="translate(21.000000, 16.000000)" fill-rule="nonzero" fill="#FFFFFF">
                <path d="M3.59612876,0 C1.61361877,0 0,1.62257357 0,3.61868673 L0,30.3813133 C0,32.3751698 1.61361877,34 3.59612876,34 L22.1123096,34 C24.0936983,34 25.7073171,32.3751698 25.7073171,30.3813133 L25.7073171,8.56334377 L17.1665463,0 L3.59612876,0 Z M23.5039909,30.3813133 C23.5039909,31.1537088 22.8799453,31.7816812 22.1123796,31.7816812 L3.59612876,31.7816812 C2.82849305,31.7816812 2.2034663,31.1537088 2.2034663,30.3813133 L2.2034663,3.61868673 C2.2034663,2.84516291 2.82856312,2.21719048 3.59612876,2.21719048 L16.2554607,2.21719048 L16.3426379,2.30498674 L16.3426379,6.94401407 C16.3426379,8.33105391 17.4592626,9.45470497 18.8365079,9.45470497 L23.4730164,9.45470497 L23.5039909,9.48467558 L23.5039909,30.3813133 L23.5039909,30.3813133 Z" id="Shape"></path>
                <path d="M28.5999206,32.0440883 C28.6737937,32.2247097 28.8402772,32.3414634 29.0249283,32.3414634 C29.2074905,32.3414634 29.3761262,32.2247097 29.4488599,32.0440883 L30.6829268,29.0243902 L27.3658537,29.0243902 L28.5999206,32.0440883 Z" id="Shape"></path>
                <path d="M32.1769054,6.23191252 L31.5121061,6.23191252 L31.5121061,5.13938662 C31.5121061,4.1323827 30.5831911,3.31707317 29.439692,3.31707317 C28.2936609,3.31707317 27.3658537,4.1323827 27.3658537,5.13938662 L27.3658537,27.3658537 L31.5121061,27.3658537 L31.5121061,14.9776821 C31.5121061,15.5815507 32.0696134,16.0701385 32.7567256,16.0701385 C33.4425719,16.0701385 34,15.5815507 34,14.9776821 L34,7.83402426 C34.0000791,6.95078386 33.1820168,6.23191252 32.1769054,6.23191252 Z" id="Shape"></path>
                <path d="M5.21194285,12.4390244 L13.0318918,12.4390244 C13.6207803,12.4390244 14.097561,11.8816162 14.097561,11.1945285 C14.097561,10.5073618 13.6207803,9.95121951 13.0318918,9.95121951 L5.21194285,9.95121951 C4.62407162,9.95121951 4.14634146,10.5073618 4.14634146,11.1945285 C4.14634146,11.8816162 4.62407162,12.4390244 5.21194285,12.4390244 Z" id="Shape"></path>
                <path d="M20.4924181,15.7560976 L5.2136762,15.7560976 C4.62484871,15.7560976 4.14634146,16.3121784 4.14634146,17.000633 C4.14634146,17.6864765 4.62484871,18.2439024 5.2136762,18.2439024 L20.4924181,18.2439024 C21.0823325,18.2439024 21.5609756,17.6864765 21.5609756,17.000633 C21.5610435,16.3121784 21.0824004,15.7560976 20.4924181,15.7560976 Z" id="Shape"></path>
                <path d="M20.4924181,21.5609756 L5.2136762,21.5609756 C4.62484871,21.5609756 4.14634146,22.1181357 4.14634146,22.8048385 C4.14634146,23.4916995 4.62484871,24.0487805 5.2136762,24.0487805 L20.4924181,24.0487805 C21.0823325,24.0487805 21.5609756,23.4916995 21.5609756,22.8048385 C21.5610435,22.1181357 21.0824004,21.5609756 20.4924181,21.5609756 Z" id="Shape"></path>
            </g>
        </g>
    </g>
</svg>