<?xml version="1.0" encoding="UTF-8"?>
<svg width="587px" height="512px" viewBox="0 0 587 512" version="1.1" xmlns="http://www.w3.org/2000/svg" xmlns:xlink="http://www.w3.org/1999/xlink">
    <!-- Generator: Sketch 47.1 (45422) - http://www.bohemiancoding.com/sketch -->
    <title>Artboard</title>
    <desc>Created with Sketch.</desc>
    <defs>
        <path d="M157.174944,259.039963 L157.27706,259.188911 C157.272239,259.183654 157.21395,259.143789 157.174944,259.039963 L157.174944,259.039963 Z M85.5510869,251.451494 C85.4682544,251.492235 85.5133959,251.468579 85.5563462,251.445799 L85.565988,251.441418 C85.5611671,251.444484 85.5563462,251.448427 85.5510869,251.451494 L85.5510869,251.451494 Z M268.996253,231.543261 L268.969519,231.380294 L263.585841,198.251162 C263.514842,196.761242 263.03231,195.29936 262.195657,194.076233 C261.70173,193.38231 261.383548,193.058567 261.016718,192.597704 L259.936388,191.290903 L255.613757,186.064576 L246.968931,175.611483 C241.203085,168.644215 235.429788,161.683518 229.7402,154.655794 L225.459642,149.400116 C224.912684,148.714078 224.581354,147.950938 224.480552,146.997232 L224.050174,143.634508 L222.390455,130.17573 L221.559938,123.446341 L221.353076,121.764103 C221.299169,121.260308 221.19267,120.476578 220.965209,119.85231 C220.520368,118.551204 219.69774,117.380209 218.60733,116.537338 C218.068261,116.117216 217.455563,115.76894 216.793779,115.516167 C216.176699,115.289678 215.697234,115.151682 215.141949,114.965059 L211.917616,113.913222 C210.140003,113.386646 208.894009,111.894975 208.687585,110.066417 L207.733038,103.353675 L207.257518,99.996647 L207.033563,98.3165996 C207.008582,98.0607593 206.934515,97.7085407 206.859133,97.3677124 C206.796022,97.0264459 206.706616,96.6908745 206.562426,96.3662552 C205.597799,93.670732 202.841974,91.8167658 200.022599,91.7615673 C198.610501,91.7103117 197.158083,92.0813677 195.935755,92.8550219 C195.355489,93.1962884 194.701594,93.8012806 194.24974,94.327418 L193.7339,94.9998751 L193.200966,95.8129567 C192.926611,96.2260687 192.483961,96.894583 192.232395,97.5613449 C191.963737,98.2320496 191.793251,98.9426199 191.729703,99.6641422 C191.677987,100.418083 191.700777,100.90304 191.684123,101.48569 L191.656074,103.181071 L191.511884,109.960839 L191.223065,123.521691 L191.150313,126.912013 C191.138918,128.231957 191.113937,128.697201 190.806711,129.376667 C190.541559,129.996992 190.008626,130.559929 189.511193,130.866148 C189.495853,130.882357 189.368756,130.954641 189.236837,131.026049 L188.931365,131.183758 L188.175354,131.567519 L186.663769,132.336354 L183.640162,133.873587 C183.341702,134.025163 183.240462,134.074228 183.083124,134.131179 C182.934113,134.192511 182.778528,134.231938 182.622505,134.267861 C182.311335,134.337954 181.989209,134.358544 181.673656,134.330945 C181.358542,134.30466 181.048687,134.233252 180.756801,134.121979 L180.545556,134.030858 L180.383835,133.944994 L179.732569,133.548529 L176.851399,131.757647 L165.328472,124.594556 L162.448178,122.804111 L161.728105,122.356391 L161.367849,122.132092 L161.204375,122.010305 C160.998389,121.84252 160.799854,121.669039 160.656979,121.449998 C160.091614,120.682477 160.029818,119.644221 160.417685,118.826758 C164.734619,114.239594 169.008603,109.61344 173.257168,104.964944 L173.507419,104.692018 L173.724361,104.307819 C174.979997,102.087178 175.294235,99.2085361 174.419015,96.757025 C173.613918,94.2844859 171.710522,92.2158592 169.28515,91.1302901 C168.664563,90.8928492 168.089118,90.6597892 167.259478,90.5213551 L166.678335,90.4236626 L166.341308,90.3925587 L166.040656,90.3689023 L165.890769,90.3575121 L165.815387,90.3513789 L165.40473,90.3434935 L162.993383,90.3873017 L158.170249,90.4902512 L138.878593,90.9002966 L137.672919,90.9370956 C137.645309,90.9401622 137.420477,90.9300863 137.305651,90.9046775 C137.165406,90.8797067 137.02779,90.8394031 136.894995,90.785957 C136.837143,90.7631767 136.736342,90.7106068 136.753873,90.7250635 L136.295883,90.4543284 L134.228576,89.2128019 L133.194264,88.5920386 C132.940946,88.4391477 132.319044,88.0580157 131.714235,87.7977946 C129.299382,86.7231776 126.450205,86.7398247 124.062962,87.8135655 C122.848085,88.3708068 121.826483,89.0888244 120.863172,90.1634414 C120.193499,90.9568093 120.308325,90.8499171 119.836311,91.5438402 L119.187237,92.5597541 C115.701696,97.9635049 112.321777,103.435597 108.909865,108.887098 L106.354328,112.977915 L105.076778,115.023324 L104.497389,115.945926 C104.397902,116.097064 104.287458,116.241632 104.15817,116.36999 C103.896962,116.620135 103.594119,116.844872 103.246573,116.981992 C102.860898,117.128749 102.65053,117.189205 101.942289,117.194462 C101.178389,117.230385 100.385563,116.923289 99.8280872,116.346334 C99.6777615,116.249079 99.0896066,115.333924 98.6644872,114.729808 L97.2984075,112.741351 L96.5472171,111.659724 C96.1957266,111.18309 95.7977798,110.741503 95.357321,110.347228 C94.4728973,109.566127 93.4355183,108.961573 92.3179363,108.607602 C91.2494403,108.230412 89.8710891,108.159443 89.082646,108.215518 L86.670422,108.28123 L86.0555328,108.298753 C85.7675911,108.307515 85.4805259,108.327229 85.1960903,108.365342 C84.6263426,108.43894 84.0657986,108.571679 83.5254148,108.760054 C82.455604,109.126292 81.4283051,109.765016 80.648189,110.497929 L66.7800923,124.000515 L59.8747504,130.741733 L56.4220795,134.111904 C55.0389074,135.420895 54.22373,137.31166 54.2066376,139.204177 L51.2145857,151.512551 L51.1777713,151.664565 L51.1804009,151.771458 C51.2058204,152.702821 50.9525018,153.645576 50.45463,154.452524 C49.9361596,155.290576 49.2603512,155.839932 48.2575953,156.389726 L42.4654527,159.858465 L30.8802911,166.795506 L7.57103703,180.431708 C5.70182638,181.483544 4.47423927,183.569694 4.45714684,185.7255 C2.96879059,194.066595 1.5834272,202.424776 0.010047075,210.750539 L0.0017199936,210.793909 L0.000843458709,210.861812 C-0.021508181,212.218554 0.400981636,213.584496 1.19643705,214.700293 L1.21572082,214.72833 L1.25472662,214.770386 C5.40073665,219.320314 9.5989005,223.820738 13.7028369,228.410531 L25.9519737,242.013439 C26.3420317,242.606603 26.5843936,243.287383 26.6422449,243.981306 C26.6764298,244.321697 26.6540781,244.707648 26.6028008,245.005544 L26.3446613,246.431503 L25.3305104,252.176521 L24.3163596,257.921538 L24.1914533,258.603633 C24.1239602,258.925185 24.0967876,259.254186 24.0678619,259.583186 C24.0314857,260.242938 24.0801334,260.907948 24.2054779,261.558939 C24.4623026,262.860483 25.049581,264.102886 25.9173505,265.127561 C26.3735869,265.652384 26.7895028,266.072506 27.4596137,266.536873 L27.7970796,266.761172 L28.1862611,266.999051 L28.8138601,267.370545 L31.3246943,268.856521 L36.3468009,271.828913 L38.8571968,273.315328 L39.4852341,273.68726 C39.7157628,273.816056 40.0817161,274.019765 40.3902564,274.150314 C41.0375774,274.446457 41.7313547,274.636585 42.4338975,274.761877 C43.8455569,274.994499 45.3155059,274.864826 46.6754498,274.384688 C48.0371467,273.906301 49.2774436,273.064744 50.2464529,271.981804 L50.354705,271.860455 L50.5269441,271.590158 L57.6851663,260.385753 C58.1655074,259.913938 58.9346668,259.645832 59.4395509,259.688326 L64.0277727,260.422552 L73.950586,262.03864 L75.1913211,262.241034 L75.5011762,262.291413 L75.8649381,262.325584 L75.9937888,262.332593 L76.2519283,262.344421 C76.5964065,262.366325 76.9430761,262.346612 77.2893073,262.327774 C78.6755473,262.23972 80.0394356,261.814779 81.2516833,261.136627 C82.4700668,260.463732 83.5223469,259.503017 84.3449749,258.373201 C84.7617673,257.794056 85.0891531,257.221482 85.3915576,256.520111 C85.5414451,256.159569 85.7259557,255.635622 85.7504986,255.524349 L85.84122,255.223386 L85.9634966,254.748504 C86.0726252,254.277127 86.1462541,254.122922 86.313234,253.232738 C86.4258688,252.543634 86.4512883,252.021877 86.4832818,251.566709 C86.4881027,251.378334 86.5003742,251.205291 86.5135223,251.042324 L88.7289642,250.10877 C94.911603,247.523206 101.075396,244.894709 107.224727,242.233794 L116.458145,238.262136 L118.7665,237.269441 L119.331427,237.027181 C119.384895,237.016229 119.43179,236.985125 119.48482,236.978115 C119.585622,236.944383 119.690806,236.931679 119.795552,236.925107 C120.203579,236.898823 120.604594,237.060913 120.889906,237.339534 C126.935367,244.395295 132.952341,251.476464 139.064857,258.475274 L139.170041,258.596185 L139.282676,258.709211 C141.047579,260.486512 143.515901,261.580405 146.015778,261.692116 C148.515218,261.826608 151.078206,260.981546 153.007897,259.388239 L153.005268,259.384296 L153.008336,259.387801 C153.053039,259.370277 153.138939,259.299308 153.308987,259.220453 C153.482103,259.143789 153.702113,259.066686 153.950172,258.997469 C154.450674,258.862978 155.060304,258.797265 155.622601,258.820046 C155.902215,258.833626 156.177447,258.856406 156.417618,258.904157 C156.657789,258.948404 156.874731,259.008421 157.023304,259.070191 C157.124543,259.091657 157.147772,259.133275 157.206499,259.152112 C157.274431,259.167883 157.261283,259.188035 157.280128,259.19373 L157.409855,259.38342 C161.358645,264.607995 165.296478,269.840455 169.293039,275.029108 L181.241086,290.626606 L181.01757,290.299358 C182.178978,292.150258 183.88866,293.583226 185.984893,294.37309 L186.374074,294.510648 L186.689627,294.610092 L187.140604,294.74327 L188.042997,295.008748 L189.847344,295.541018 L197.066047,297.669224 L204.283435,299.796992 L207.893006,300.861095 L209.697353,301.393366 L210.75796,301.698271 C211.272924,301.829258 211.797969,301.917751 212.326519,301.963312 C213.38362,302.055309 214.454746,301.973826 215.484675,301.724118 C216.556677,301.436298 216.948926,301.255808 217.588797,301.05648 L221.155855,299.86139 L228.291726,297.470773 L231.859223,296.275683 L233.64341,295.678138 L234.113671,295.519552 C234.360853,295.43544 234.604092,295.340815 234.844262,295.238303 C235.323289,295.030214 235.784784,294.784011 236.22349,294.501886 C237.10134,293.93895 237.886277,293.233198 238.535789,292.417926 C238.707152,292.20239 238.833811,292.034604 239.017445,291.759926 L239.229566,291.429174 L239.454398,291.040156 L239.891789,290.207799 L241.640476,286.877056 L255.554152,260.193873 L262.440649,246.814826 L265.883678,240.124864 L267.592921,236.773531 L268.026805,235.928907 C268.244186,235.503967 268.428697,235.06238 268.575516,234.608526 C268.868279,233.701256 269.011154,232.748426 268.999321,231.799101 L268.996253,231.543261 Z" id="path-1"></path>
        <filter x="-48.1%" y="-33.7%" width="197.8%" height="234.9%" filterUnits="objectBoundingBox" id="filter-2">
            <feOffset dx="2" dy="86" in="SourceAlpha" result="shadowOffsetOuter1"></feOffset>
            <feGaussianBlur stdDeviation="29.5" in="shadowOffsetOuter1" result="shadowBlurOuter1"></feGaussianBlur>
            <feColorMatrix values="0 0 0 0 0   0 0 0 0 0   0 0 0 0 0  0 0 0 0.113847373 0" type="matrix" in="shadowBlurOuter1"></feColorMatrix>
        </filter>
        <filter x="-113.8%" y="-113.8%" width="327.5%" height="327.5%" filterUnits="objectBoundingBox" id="filter-3">
            <feGaussianBlur stdDeviation="4.55078125" in="SourceGraphic"></feGaussianBlur>
        </filter>
    </defs>
    <g id="Page-1" stroke="none" stroke-width="1" fill="none" fill-rule="evenodd">
        <g id="Artboard">
            <g id="Group-6" transform="translate(156.000000, 46.000000)">
                <g id="Fill-1-Copy">
                    <use fill="black" fill-opacity="1" filter="url(#filter-2)" xlink:href="#path-1"></use>
                    <use fill="#FFFFFF" fill-rule="evenodd" xlink:href="#path-1"></use>
                </g>
                <circle id="Oval-4-Copy-3" fill="#D0021B" cx="232" cy="273" r="6"></circle>
                <path d="M123,145 L123,53" id="Path-2-Copy" stroke="#646464" stroke-width="2" stroke-dasharray="1,3"></path>
                <text id="96%-австралийцев" font-family="HelveticaNeue-LightItalic, Helvetica Neue" font-size="42" font-style="italic" font-weight="300" line-spacing="20" fill="#D0021B">
                    <tspan x="64.079" y="40">96%</tspan>
                    <tspan x="167.735" y="68.2157898" font-family="HelveticaNeue-ThinItalic, Helvetica Neue"></tspan>
                    <tspan x="59" y="85.7359314" font-family="HelveticaNeue-ThinItalic, Helvetica Neue" font-size="20">австралийцев</tspan>
                </text>
                <circle id="Combined-Shape" fill="#646464" cx="123" cy="51" r="3"></circle>
                <circle id="Oval-4-Copy-4" fill="#D0021B" opacity="0.67261096" filter="url(#filter-3)" cx="232" cy="273" r="6"></circle>
            </g>
        </g>
    </g>
</svg>