<?xml version="1.0" encoding="UTF-8"?>
<svg width="587px" height="512px" viewBox="0 0 587 512" version="1.1" xmlns="http://www.w3.org/2000/svg" xmlns:xlink="http://www.w3.org/1999/xlink">
    <!-- Generator: Sketch 47.1 (45422) - http://www.bohemiancoding.com/sketch -->
    <title>Artboard</title>
    <desc>Created with Sketch.</desc>
    <defs>
        <path d="M41.0092955,221.571473 L65.4707205,210.780081 L65.4707205,210.780081 C67.9015177,209.707712 70.4564033,208.942241 73.0763952,208.50134 L94.4543968,204.903778 L94.4543968,204.903778 C94.6080424,204.877922 94.7618747,204.853189 94.9158816,204.82958 L117.465136,201.372808 L117.465136,201.372808 C118.999128,201.137649 120.381326,200.314561 121.318932,199.077901 L121.318932,199.077901 L121.318932,199.077901 C122.231693,197.87401 122.478985,196.292255 121.97723,194.867219 L120.591998,190.933016 L120.591998,190.933016 C119.198745,186.976034 119.550917,182.613597 121.560871,178.931349 L121.684418,178.705008 L121.684418,178.705008 C123.811714,174.80779 124.586447,170.3151 123.887296,165.930481 L122.633194,158.06557 L122.633194,158.06557 C122.081983,154.608739 119.161257,152.025473 115.66298,151.900694 L115.66298,151.900694 L115.66298,151.900694 C112.142863,151.775137 109.18022,149.225887 108.531002,145.763878 L105.771431,131.048228 L105.771431,131.048228 C105.192495,127.961004 104.162175,124.975838 102.713617,122.188761 L98.8724792,114.798278 L98.8724792,114.798278 C97.5600492,112.273117 95.6112975,110.134211 93.2188841,108.59302 L93.2188841,108.59302 L93.2188841,108.59302 C90.888885,107.092036 89.2812341,104.696394 88.7752622,101.971355 L86.9666682,92.2307138 L86.9666682,92.2307138 C85.8074636,85.9875244 82.7682727,80.247597 78.2561538,75.779717 L78.2561538,75.779717 L78.2561538,75.779717 C73.9557829,71.5215089 72.2006611,65.3215681 73.6309053,59.4410982 L80.2525226,32.2162219 L80.2525226,32.2162219 C80.6248786,30.6852751 80.6906483,29.0957837 80.4460433,27.5393084 L80.4460433,27.5393084 L80.4460433,27.5393084 C80.2394022,26.2244062 79.0276632,25.3099713 77.7065132,25.4719311 L60.5548424,27.5745538 L60.5548424,27.5745538 C58.3264016,27.8477383 56.2984336,26.2626899 56.0252491,24.0342491 C55.9930538,23.7716232 55.9865758,23.5064814 56.0059074,23.2425966 L56.0059074,23.2425966 L56.0059074,23.2425966 C56.2419473,20.0205494 57.3940059,16.9330933 59.326343,14.3440053 L61.5878733,11.3138398 L61.5878733,11.3138398 C63.1658476,9.19955314 63.9076617,6.57710548 63.6710254,3.94951838 L63.6710254,3.94951838 L63.6710254,3.94951838 C63.4650532,1.66242204 61.5039129,-0.062691193 59.2092242,0.0247036643 L51.8068524,0.306628274 L51.8068524,0.306628274 C44.9121284,0.569218757 38.9265271,5.13699115 36.853503,11.7179291 L32.0646675,26.920371 L32.0646675,26.920371 C30.9984288,30.3052088 30.5026579,33.8438318 30.5976526,37.3913615 L30.9669969,51.184347 L30.9669969,51.184347 C31.1127075,56.62584 32.6441126,61.9402195 35.4163687,66.6248405 L38.1408465,71.2287246 L38.1408465,71.2287246 C41.2226806,76.4364775 42.7647168,82.4113306 42.5880436,88.4600642 L42.2349697,100.548203 L42.2349697,100.548203 C42.1714697,102.722242 43.3282035,104.749492 45.2321358,105.800929 L45.2321358,105.800929 L45.2321358,105.800929 C47.2183081,106.897782 49.5573755,107.16558 51.7400591,106.546016 L55.0881529,105.595645 L55.0881529,105.595645 C58.4760956,104.633963 62.0021629,106.600836 62.9638448,109.988779 C63.0197418,110.1857 63.0661243,110.385199 63.1028311,110.586582 L66.7231289,130.448455 L66.7231289,130.448455 C67.7433662,136.045736 65.3159316,141.710317 60.5593429,144.832064 L60.5593429,144.832064 L60.5593429,144.832064 C55.5249015,148.136164 51.9662325,153.26214 50.630369,159.13395 L46.1356145,178.890716 L46.1356145,178.890716 C45.9134127,179.867407 46.1176105,180.892508 46.6971103,181.709503 L46.6971103,181.709503 L46.6971103,181.709503 C47.2974087,182.55582 48.0703425,183.265226 48.9649147,183.790917 L56.9964153,188.510588 L56.9964153,188.510588 C58.6097015,189.458628 59.1489904,191.534993 58.2009509,193.148279 C57.8222785,193.792669 57.2411586,194.293762 56.5480792,194.573533 L56.5480792,194.573533 L56.5480792,194.573533 C52.3775948,196.257004 48.7642818,199.078836 46.1203881,202.717083 L39.911537,211.261047 L39.911537,211.261047 C38.2682052,213.522427 37.3372485,216.222841 37.2378781,219.016495 L37.2378781,219.016495 L37.2378781,219.016495 C37.185104,220.500163 38.3450731,221.745696 39.8287416,221.79847 C40.23435,221.812898 40.6379601,221.735292 41.0092955,221.571473 Z" id="path-1"></path>
        <filter x="-179.6%" y="-32.0%" width="401.4%" height="228.1%" filterUnits="objectBoundingBox" id="filter-2">
            <feOffset dx="-27" dy="72" in="SourceAlpha" result="shadowOffsetOuter1"></feOffset>
            <feGaussianBlur stdDeviation="35" in="shadowOffsetOuter1" result="shadowBlurOuter1"></feGaussianBlur>
            <feColorMatrix values="0 0 0 0 0   0 0 0 0 0   0 0 0 0 0  0 0 0 0.178187274 0" type="matrix" in="shadowBlurOuter1"></feColorMatrix>
        </filter>
        <path d="M25.9349651,100.261377 L30.9723159,119.705747 L29.8080913,121.466641 L29.8080913,121.466641 C28.190008,123.913999 24.8943171,124.586258 22.4469597,122.968175 C22.1371034,122.763312 21.8495887,122.526514 21.5891342,122.261669 L20.9674083,121.629461 L20.9674083,121.629461 C18.4997334,119.120183 14.8946839,118.0928 11.4749513,118.92426 L9.40758776,119.42691 L9.40758776,119.42691 C5.85052448,120.291759 2.25789818,118.141152 1.33987551,114.597439 L0.670466588,112.013415 L0.670466588,112.013415 C0.0369793484,109.568054 0.352428746,106.973549 1.55342925,104.751232 L5.40722854,97.6202075 L5.40722854,97.6202075 C7.48254006,93.7800757 11.808851,91.7297299 16.0951762,92.5549246 L18.1450041,92.9495533 L18.1450041,92.9495533 C21.9351486,93.6792243 24.9669966,96.5249817 25.9349651,100.261377 Z" id="path-3"></path>
        <filter x="-548.6%" y="-225.6%" width="1020.9%" height="1002.3%" filterUnits="objectBoundingBox" id="filter-4">
            <feOffset dx="-27" dy="72" in="SourceAlpha" result="shadowOffsetOuter1"></feOffset>
            <feGaussianBlur stdDeviation="35" in="shadowOffsetOuter1" result="shadowBlurOuter1"></feGaussianBlur>
            <feColorMatrix values="0 0 0 0 0   0 0 0 0 0   0 0 0 0 0  0 0 0 0.178187274 0" type="matrix" in="shadowBlurOuter1"></feColorMatrix>
        </filter>
        <path d="M23.8552845,34.4281655 L27.5368028,47.2408585 L18.8827733,33.584892 L18.8827733,33.584892 L18.8827733,33.584892 C19.7751828,32.3236214 21.5210854,32.0246004 22.782356,32.9170098 C23.3013068,33.2841924 23.6797257,33.8171729 23.8552845,34.4281655 Z" id="path-5"></path>
        <filter x="-1941.3%" y="-478.5%" width="3358.6%" height="2014.0%" filterUnits="objectBoundingBox" id="filter-6">
            <feOffset dx="-27" dy="72" in="SourceAlpha" result="shadowOffsetOuter1"></feOffset>
            <feGaussianBlur stdDeviation="35" in="shadowOffsetOuter1" result="shadowBlurOuter1"></feGaussianBlur>
            <feColorMatrix values="0 0 0 0 0   0 0 0 0 0   0 0 0 0 0  0 0 0 0.178187274 0" type="matrix" in="shadowBlurOuter1"></feColorMatrix>
        </filter>
        <path d="M28.3285933,11.2658388 L25.6080531,16.5986625 L25.6080531,16.5986625 C24.9500099,17.8885637 23.3708891,18.4007859 22.0809879,17.7427428 C21.3331096,17.3612127 20.8131727,16.6446058 20.6824967,15.8152622 L20.050424,11.8037713 L20.050424,11.8037713 C19.706582,9.62155504 21.1968787,7.57378017 23.3790949,7.2299381 C23.3832621,7.2292815 23.3874303,7.2286315 23.3915995,7.22798809 L25.2061524,6.9479578 L25.2061524,6.9479578 C26.8397191,6.69585814 28.3683537,7.81575848 28.6204534,9.44932521 C28.716309,10.0704547 28.6141959,10.7059983 28.3285933,11.2658388 Z" id="path-7"></path>
        <filter x="-1941.2%" y="-638.7%" width="3358.5%" height="2654.6%" filterUnits="objectBoundingBox" id="filter-8">
            <feOffset dx="-27" dy="72" in="SourceAlpha" result="shadowOffsetOuter1"></feOffset>
            <feGaussianBlur stdDeviation="35" in="shadowOffsetOuter1" result="shadowBlurOuter1"></feGaussianBlur>
            <feColorMatrix values="0 0 0 0 0   0 0 0 0 0   0 0 0 0 0  0 0 0 0.178187274 0" type="matrix" in="shadowBlurOuter1"></feColorMatrix>
        </filter>
        <path d="M35.5270683,83.1277475 L35.5270683,83.1277475 L27.7839893,91.0239326 L30.9259867,82.7106821 L30.9259867,82.7106821 C31.3941015,81.4721213 32.7776354,80.8475513 34.0161962,81.315666 C34.8027483,81.6129438 35.3760679,82.3005612 35.5270683,83.1277475 Z" id="path-9"></path>
        <filter x="-2169.7%" y="-719.8%" width="3742.0%" height="2979.2%" filterUnits="objectBoundingBox" id="filter-10">
            <feOffset dx="-27" dy="72" in="SourceAlpha" result="shadowOffsetOuter1"></feOffset>
            <feGaussianBlur stdDeviation="35" in="shadowOffsetOuter1" result="shadowBlurOuter1"></feGaussianBlur>
            <feColorMatrix values="0 0 0 0 0   0 0 0 0 0   0 0 0 0 0  0 0 0 0.178187274 0" type="matrix" in="shadowBlurOuter1"></feColorMatrix>
        </filter>
        <filter x="-107.9%" y="-107.9%" width="315.8%" height="315.8%" filterUnits="objectBoundingBox" id="filter-11">
            <feGaussianBlur stdDeviation="3.23660714" in="SourceGraphic"></feGaussianBlur>
        </filter>
    </defs>
    <g id="Page-1" stroke="none" stroke-width="1" fill="none" fill-rule="evenodd">
        <g id="Artboard">
            <g id="Group-8" transform="translate(140.000000, 49.000000)">
                <g id="Group-19-Copy" transform="translate(116.500000, 127.000000) rotate(-36.000000) translate(-116.500000, -127.000000) translate(54.000000, 16.000000)" fill-rule="nonzero">
                    <g id="Shape">
                        <use fill="black" fill-opacity="1" filter="url(#filter-2)" xlink:href="#path-1"></use>
                        <use fill="#FFFFFF" fill-rule="evenodd" xlink:href="#path-1"></use>
                    </g>
                    <g id="Shape">
                        <use fill="black" fill-opacity="1" filter="url(#filter-4)" xlink:href="#path-3"></use>
                        <use fill="#FFFFFF" fill-rule="evenodd" xlink:href="#path-3"></use>
                    </g>
                    <g id="Shape">
                        <use fill="black" fill-opacity="1" filter="url(#filter-6)" xlink:href="#path-5"></use>
                        <use fill="#FFFFFF" fill-rule="evenodd" xlink:href="#path-5"></use>
                    </g>
                    <g id="Shape">
                        <use fill="black" fill-opacity="1" filter="url(#filter-8)" xlink:href="#path-7"></use>
                        <use fill="#FFFFFF" fill-rule="evenodd" xlink:href="#path-7"></use>
                    </g>
                    <g id="Shape">
                        <use fill="black" fill-opacity="1" filter="url(#filter-10)" xlink:href="#path-9"></use>
                        <use fill="#FFFFFF" fill-rule="evenodd" xlink:href="#path-9"></use>
                    </g>
                </g>
                <circle id="Oval-4-Copy-6" fill="#D0021B" cx="167.5" cy="142.5" r="5.5"></circle>
                <text id="96%-британцев" font-family="HelveticaNeue-LightItalic, Helvetica Neue" font-size="42" font-style="italic" font-weight="300" line-spacing="20" fill="#D0021B">
                    <tspan x="100" y="56">96%</tspan>
                    <tspan x="203.656" y="84.2157898" font-family="HelveticaNeue-ThinItalic, Helvetica Neue"></tspan>
                    <tspan x="109.921" y="101.735931" font-family="HelveticaNeue-ThinItalic, Helvetica Neue" font-size="20">британцев</tspan>
                </text>
                <path d="M145,139.895673 L145,75.7252759" id="Path-4" stroke="#646464" stroke-width="2" stroke-dasharray="1,3"></path>
                <circle id="Combined-Shape-Copy-2" fill="#646464" cx="146" cy="72" r="3"></circle>
                <circle id="Oval-4-Copy-11" fill="#D0021B" opacity="0.733752264" filter="url(#filter-11)" cx="167.5" cy="142.5" r="4.5"></circle>
            </g>
        </g>
    </g>
</svg>