<?xml version="1.0" encoding="UTF-8"?>
<svg width="40px" height="56px" viewBox="0 0 40 56" version="1.1" xmlns="http://www.w3.org/2000/svg" xmlns:xlink="http://www.w3.org/1999/xlink">
    <!-- Generator: Sketch 47.1 (45422) - http://www.bohemiancoding.com/sketch -->
    <title>05_Control</title>
    <desc>Created with Sketch.</desc>
    <defs>
        <polygon id="path-1" points="0.00847881356 0.0559366755 0.00847881356 52.860438 45.220339 52.860438 45.220339 0.0559366755"></polygon>
    </defs>
    <g id="Page-1" stroke="none" stroke-width="1" fill="none" fill-rule="evenodd">
        <g id="05_Control">
            <g id="test" transform="translate(-3.000000, 0.000000)">
                <g id="Group-3" transform="translate(0.000000, 5.000000)">
                    <mask id="mask-2" fill="white">
                        <use xlink:href="#path-1"></use>
                    </mask>
                    <g id="Clip-2"></g>
                    <path d="M39.1904762,1 L6.80952381,1 C5.22636333,1 3.95652206,1 3,1 L3,51 C3.95652206,51 5.22636333,51 6.80952381,51 L39.1904762,51 C40.7736367,51 42.0434779,51 43,51 L43,1 C42.0434779,1 40.7736367,1 39.1904762,1 Z" id="Fill-1" fill="#D0021B" mask="url(#mask-2)"></path>
                </g>
                <path d="M41.0502686,8 C41.4000208,8 41.716598,7.97953623 42,7.93860869 L42,53 C41.716598,53 41.4000208,53 41.0502686,53 L4.94973139,53 C4.59997917,53 4.28340203,53.0204638 4,53.0613913 L4,7.93860869 C4.28340203,7.97953623 4.59997917,8 4.94973139,8 L41.0502686,8 Z" id="Fill-4" fill="#FFFFFF"></path>
                <path d="M16.1998594,25 L10.8001406,25 C10.1383594,25 9.5383125,25 9,25 L9,16 C9.5383125,16 10.1383594,16 10.8001406,16 L16.1998594,16 C16.8616406,16 17.4616875,16 18,16 L18,25 C17.4616875,25 16.8616406,25 16.1998594,25 Z M10.8001406,17.8001406 L10.8001406,23.1998594 L16.2015469,23.1998594 L16.1998594,17.8001406 L10.8001406,17.8001406 Z" id="Fill-5" fill="#A1A1A1"></path>
                <path d="M16.1998594,36 L10.8001406,36 C10.1383594,36 9.5383125,36 9,36 L9,27 C9.5383125,27 10.1383594,27 10.8001406,27 L16.1998594,27 C16.8616406,27 17.4616875,27 18,27 L18,36 C17.4616875,36 16.8616406,36 16.1998594,36 Z M10.8001406,28.8001406 L10.8001406,34.1998594 L16.2015469,34.1998594 L16.1998594,28.8001406 L10.8001406,28.8001406 Z" id="Fill-5-Copy" fill="#A1A1A1"></path>
                <path d="M16.1998594,47 L10.8001406,47 C10.1383594,47 9.5383125,47 9,47 L9,38 C9.5383125,38 10.1383594,38 10.8001406,38 L16.1998594,38 C16.8616406,38 17.4616875,38 18,38 L18,47 C17.4616875,47 16.8616406,47 16.1998594,47 Z M10.8001406,39.8001406 L10.8001406,45.1998594 L16.2015469,45.1998594 L16.1998594,39.8001406 L10.8001406,39.8001406 Z" id="Fill-5-Copy-2" fill="#A1A1A1"></path>
                <path d="M25.0003125,18 L21,18 L21.0003125,17 L21,16 L25.0003125,16 C25.0003125,16.2982059 25.0003125,16.6316694 25.0003125,17.0003906 C25.0003125,17.368591 25.0003125,17.7017941 25.0003125,18 Z" id="Fill-6" fill="#D0D0D0"></path>
                <path d="M25.0003125,29 L21,29 L21.0003125,28 L21,27 L25.0003125,27 C25.0003125,27.2982059 25.0003125,27.6316694 25.0003125,28.0003906 C25.0003125,28.368591 25.0003125,28.7017941 25.0003125,29 Z" id="Fill-6-Copy" fill="#D0D0D0"></path>
                <path d="M25.0003125,40 L21,40 L21.0003125,39 L21,38 L25.0003125,38 C25.0003125,38.2982059 25.0003125,38.6316694 25.0003125,39.0003906 C25.0003125,39.368591 25.0003125,39.7017941 25.0003125,40 Z" id="Fill-6-Copy-2" fill="#D0D0D0"></path>
                <polygon id="Fill-7" fill="#BBBBBB" points="34.1175173 22 21 22 21.0591263 21 21 20 34.1175173 20 34.0591263 21"></polygon>
                <polygon id="Fill-7-Copy" fill="#BBBBBB" points="34.1175173 33 21 33 21.0591263 32 21 31 34.1175173 31 34.0591263 32"></polygon>
                <polygon id="Fill-7-Copy-2" fill="#BBBBBB" points="34.1175173 44 21 44 21.0591263 43 21 42 34.1175173 42 34.0591263 43"></polygon>
                <path d="M27.1002813,5 C26.6024688,5 26.1998594,4.55265625 26.1998594,4.0003125 L26.1998594,2.99984375 C26.1998594,2.448125 25.7966875,2.00015625 25.3001406,2.00015625 L21.6998594,2.00015625 C21.2033125,2.00015625 20.8001406,2.448125 20.8001406,2.99984375 L20.8001406,4.0003125 C20.8001406,4.55265625 20.3975313,5 19.8997187,5 C19.4026094,5 19,4.55265625 19,4.0003125 L19,2.99984375 C19,1.34578125 20.2112031,0 21.6998594,0 L25.3001406,0 C26.7887969,0 28,1.34578125 28,2.99984375 L28,4.0003125 C28,4.55265625 27.5973906,5 27.1002813,5 Z" id="Fill-12" fill="#D4D4D4"></path>
                <path d="M33.0829156,3 L12.9170844,3 C12.4106327,3 12,3.4479532 12,4.00043401 L12,7.00017361 C12,9.76132773 14.0521608,12 16.5832737,12 L29.4167263,12 C31.9478392,12 34,9.76132773 34,7.00017361 L34,4.00043401 C34,3.4479532 33.5893673,3 33.0829156,3 Z" id="Fill-13" fill="#D0D0D0"></path>
                <polygon id="Fill-16" fill="#D0021B" points="15 33.5 11.5 30.5 13 29 15 31 19.0858304 26.7878396 20.5 28 15.707215 32.7488895"></polygon>
            </g>
        </g>
    </g>
</svg>