<?xml version="1.0" encoding="UTF-8"?>
<svg width="42px" height="50px" viewBox="0 0 42 50" version="1.1" xmlns="http://www.w3.org/2000/svg" xmlns:xlink="http://www.w3.org/1999/xlink">
    <!-- Generator: Sketch 47.1 (45422) - http://www.bohemiancoding.com/sketch -->
    <title>03_Easy</title>
    <desc>Created with Sketch.</desc>
    <defs>
        <polygon id="path-1" points="41.9695076 23 0 23 0 0.0231916667 41.9695076 0.0231916667"></polygon>
    </defs>
    <g id="Page-1" stroke="none" stroke-width="1" fill="none" fill-rule="evenodd">
        <g id="03_Easy">
            <g id="badge">
                <g id="Group-3" transform="translate(0.000000, 27.000000)">
                    <mask id="mask-2" fill="white">
                        <use xlink:href="#path-1"></use>
                    </mask>
                    <g id="Clip-2"></g>
                    <path d="M41.8191963,16.2401083 L32.1129284,0.0231916667 L21.3207714,6.2534125 L31.0270393,22.4703292 C31.4871963,23.2484 32.6555335,23.1492125 32.9745589,22.3050167 L34.690254,17.7649125 C34.8700878,17.2891958 35.363806,17.0040917 35.8716859,17.0828667 L40.7173025,17.8351583 C41.6182171,17.9749792 42.2792564,17.0180833 41.8191963,16.2401083 Z M0.15034642,16.2401083 C-0.309810624,17.0181792 0.351228637,17.975075 1.25233718,17.8351583 L6.09795381,17.0828667 C6.60573672,17.0039958 7.09955196,17.2891 7.27928868,17.7649125 L8.99498383,22.3050167 C9.31400924,23.1492125 10.4823464,23.2484 10.9425035,22.4703292 L20.6486744,6.2534125 L9.85651732,0.0231916667 L0.15034642,16.2401083 L0.15034642,16.2401083 Z" id="Fill-1" fill="#D0021B" mask="url(#mask-2)"></path>
                </g>
                <g id="Group-8" transform="translate(1.000000, 0.000000)" fill="#CECECE">
                    <path d="M20.7186408,2.14444565 L26.6515534,0.20925 C27.711165,-0.136369565 28.8630097,0.344347826 29.3698058,1.34373913 L32.2069903,6.93929348 C32.4241748,7.36757609 32.7698058,7.71583696 33.1948544,7.93467391 L38.7481553,10.7934457 C39.74,11.304 40.2170874,12.4647065 39.8740777,13.5323804 L37.9534951,19.5104348 C37.8065049,19.9679674 37.8065049,20.4605217 37.9534951,20.9180543 L39.8740777,26.8961087 C40.2170874,27.9637826 39.74,29.1243913 38.7481553,29.6350435 L33.1948544,32.4938152 C32.7698058,32.7126522 32.4241748,33.060913 32.2069903,33.4891957 L29.3698058,39.08475 C28.8631068,40.0841413 27.711165,40.5648587 26.6515534,40.2192391 L20.7186408,38.2840435 C20.2645631,38.1359348 19.7757282,38.1359348 19.3216505,38.2840435 L13.3887379,40.2192391 C12.3291262,40.5648587 11.1772816,40.0841413 10.6704854,39.08475 L7.83330097,33.4891957 C7.6161165,33.060913 7.27048544,32.7126522 6.84543689,32.4938152 L1.29213592,29.6350435 C0.300291262,29.1244891 -0.176796117,27.9637826 0.166213592,26.8961087 L2.08679612,20.9180543 C2.23378641,20.4605217 2.23378641,19.9679674 2.08679612,19.5104348 L0.16631068,13.5322826 C-0.176699029,12.4646087 0.30038835,11.304 1.29223301,10.7933478 L6.84553398,7.93457609 C7.27058252,7.71573913 7.61621359,7.36747826 7.83339806,6.93919565 L10.6705825,1.3436413 C11.1772816,0.34425 12.3292233,-0.136467391 13.388835,0.209152174 L19.3217476,2.14434783 C19.7756311,2.29255435 20.2645631,2.29255435 20.7186408,2.14444565" id="Fill-7"></path>
                </g>
                <path d="M21,6 C28.7320242,6 35,12.2679758 35,20 C35,27.7319257 28.7320242,34 21,34 C13.2680743,34 7,27.7319257 7,20 C7,12.2679758 13.2680743,6 21,6" id="Fill-10" fill="#E8E8E8"></path>
                <path d="M21,9 C27.0751671,9 32,13.9248329 32,20 C32,26.0750716 27.0751671,31 21,31 C14.9249284,31 10,26.0750716 10,20 C10,13.9248329 14.9249284,9 21,9" id="Fill-11" fill="#D5D5D5"></path>
                <path d="M22.4863751,13.6391083 L23.6428342,16.0816224 C23.8030128,16.420053 24.1127602,16.6545469 24.4710494,16.7088641 L27.0570037,17.1005354 C27.9592052,17.2371604 28.3194661,18.3928942 27.6666399,19.0562495 L25.7953862,20.9575485 C25.5361524,21.2209137 25.4178493,21.6004493 25.4790664,21.972449 L25.920825,24.6570906 C26.0749006,25.593696 25.1317625,26.3079431 24.3248607,25.8657715 L22.0118484,24.5982714 C21.6913974,24.4226946 21.3086026,24.4226946 20.9881516,24.5982714 L18.6751393,25.8657715 C17.8681436,26.3079431 16.9250055,25.593696 17.079175,24.6570906 L17.5209336,21.972449 C17.5821507,21.6005472 17.4638476,21.2210116 17.2046138,20.9575485 L15.3333601,19.0562495 C14.6805339,18.3928942 15.0407948,17.2372583 15.9429963,17.1005354 L18.5289506,16.7088641 C18.8872398,16.6546447 19.1968933,16.420053 19.3571658,16.0816224 L20.5136249,13.6391083 C20.9170758,12.7869639 22.0828303,12.7869639 22.4863751,13.6391083" id="Fill-12" fill="#FFFFFF"></path>
            </g>
        </g>
    </g>
</svg>