<?xml version="1.0" encoding="UTF-8"?>
<svg width="37px" height="70px" viewBox="0 0 37 70" version="1.1" xmlns="http://www.w3.org/2000/svg" xmlns:xlink="http://www.w3.org/1999/xlink">
    <!-- Generator: Sketch 47.1 (45422) - http://www.bohemiancoding.com/sketch -->
    <title>06_Money</title>
    <desc>Created with Sketch.</desc>
    <defs></defs>
    <g id="Page-1" stroke="none" stroke-width="1" fill="none" fill-rule="evenodd">
        <g id="06_Money">
            <g id="Group-10">
                <g id="money" transform="translate(0.000000, 42.000000)" fill-rule="nonzero">
                    <g id="Group" transform="translate(1.000000, 0.000000)">
                        <path d="M14.847324,0.0116979365 C15.159824,-0.00373956349 14.5314907,0.0116979365 14.847324,0.0116979365 L14.847324,0.0116979365 Z" id="Shape" fill="#000000"></path>
                        <path d="M34.7649674,11.0690914 L33.8947609,9.65432 C32.7981196,7.86834286 30.7911739,6.75955429 28.6587609,6.75955429 L21.0957174,6.75955429 C22.4232065,6.21325714 23.3803043,4.70622286 23.3803043,3.26493143 C23.3803043,1.46283429 21.8843587,0.00185714286 20.0378804,0.00185714286 C18.1914022,0.00185714286 16.6953804,1.46283429 16.6953804,3.26493143 C16.6953804,4.70622286 17.6525543,6.21325714 18.9800435,6.75955429 L17.5749457,6.75955429 L16.0023804,6.75955429 C16.2686848,6.64998286 16.5201522,6.50170857 16.7519891,6.32312571 C16.7519891,6.32312571 15.4225217,4.92477143 15.4225217,3.26493143 C15.4225217,2.16988571 15.8632935,1.16717714 16.5311848,0.385171429 C16.0625652,0.141142857 15.4388804,-0.0115885714 14.7725109,0.00601714286 C13.0045543,0.0528914286 11.6021957,1.51914286 11.6021957,3.26485714 C11.6021957,4.70614857 12.5592935,6.21318286 13.8867826,6.75948 L13.0079783,6.75948 L6.32411957,6.75948 C4.19170652,6.75948 2.18476087,7.86826857 1.08811957,9.65357714 L0.217684783,11.0690171 C-0.14426087,11.6579543 0.0510543478,12.4216114 0.654043478,12.7746914 C1.25703261,13.1293314 2.03943478,12.9373771 2.40122826,12.3486629 L3.27151087,10.9326286 C3.91056522,9.89225714 5.08078261,9.24567429 6.32419565,9.24567429 L12.97975,9.24567429 L17.8885,9.24567429 L28.658913,9.24567429 C29.9023261,9.24567429 31.0722391,9.89225714 31.7112935,10.9332971 L32.5818043,12.3487371 C32.8201848,12.7371771 33.242087,12.9520857 33.6744891,12.9520857 C33.8970435,12.9520857 34.1237065,12.8950343 34.3286848,12.7747657 C34.9315217,12.4216857 35.1267609,11.6580286 34.7649674,11.0690914 Z" id="Shape" fill="#AAAAAA"></path>
                    </g>
                    <path d="M36.4612733,22.3225453 L30.5170719,12.5368264 C30.3148255,12.2043244 29.9474999,12 29.5507252,12 L7.12722483,12 C6.72093358,12 6.34716361,12.2138244 6.14791454,12.5594804 L0.492358316,22.4008112 C-0.177400297,23.5652992 -0.162638331,24.9887735 0.529225763,26.140473 C1.22123972,27.2923917 2.48754659,28 3.85673762,28 L33.1438775,28 C34.5286548,28 35.8071009,27.2750724 36.4942442,26.1010843 C37.1801885,24.927827 37.1675996,23.4852795 36.4612733,22.3225453 Z" id="Shape" fill="#D0021B"></path>
                </g>
                <circle id="Oval-7" fill="#D8D8D8" cx="27.5" cy="33.5" r="5.5"></circle>
                <circle id="Oval-7-Copy" fill="#D8D8D8" cx="12" cy="23" r="5"></circle>
                <polygon id="Line-4" fill="#D8D8D8" fill-rule="nonzero" points="29 0 29 19 30 19 30 0"></polygon>
                <polygon id="Line-4-Copy" fill="#D8D8D8" fill-rule="nonzero" points="23 7 23 21 24 21 24 7"></polygon>
            </g>
        </g>
    </g>
</svg>