<?xml version="1.0" encoding="utf-8"?>
<!-- Generator: Adobe Illustrator 21.0.2, SVG Export Plug-In . SVG Version: 6.00 Build 0)  -->
<svg version="1.1" id="Слой_1" xmlns="http://www.w3.org/2000/svg" xmlns:xlink="http://www.w3.org/1999/xlink" x="0px" y="0px"
	 viewBox="0 0 30 35.7" enable-background="new 0 0 30 35.7" xml:space="preserve">
<path fill="#1AB798" d="M0.8,31.2h2.5c0.1,0.1,0.1,0.1,0.2,0.2v3.8c0,0.3,0.3,0.6,0.6,0.6c0.3,0,0.6-0.3,0.6-0.6v-3.8
	c-0.1-0.1-0.1-0.2-0.2-0.2h2.5c0.3,0,0.6-0.2,0.7-0.6v-6.9H11v0.9c0,0.3,0.1,0.8,0.4,0.8h3.8c3.3-0.1,6-2.9,5.8-6.3
	c-0.1-3.2-2.7-5.7-5.8-5.8h-3.8C11,13.3,11,13.7,11,14v1H6.9C1.1,15,0,18,0,19.8v10.8C0.1,30.9,0.5,31.2,0.8,31.2z M12.1,14.4h3
	c2.7,0.1,4.8,2.4,4.7,5.1c-0.1,2.5-2.1,4.6-4.7,4.7h-3V14.4z M11,22.5H7.5v-6.3H11V22.5z M1.1,19.8c0-2.3,1.7-3.5,5.2-3.6V30H1.1
	V19.8z M15.9,11.5h3c0.3,0,0.7-0.2,0.7-0.5v-0.6h3.5V17c0,0.3,0,0.8,0.3,0.8h2.5c0,0,0.1-0.2,0.1-0.1v17.3c0,0.3,0.3,0.6,0.6,0.6
	c0.3,0,0.6-0.3,0.6-0.6c0,0,0,0,0,0V17.8c0-0.1-0.1,0.1-0.2,0.1h2.5c0.4-0.1,0.6-0.5,0.6-0.8V6.2c0-1.8-0.9-5.1-6.6-5.1h-3.8V0.5
	C19.5,0.2,19.2,0,18.9,0h-3c-3.2,0-5.8,2.6-5.8,5.8C10.1,9,12.7,11.5,15.9,11.5L15.9,11.5z M28.8,6.2v10.5h-4.6V2.6
	C27.1,2.7,28.8,3.9,28.8,6.2L28.8,6.2z M23.1,2.3v6.9h-3.5V2.3H23.1z M15.9,1.1h2.6v9.2h-2.6c-2.4,0.7-5.1-0.8-5.8-3.3
	s0.7-5,3.1-5.7C14,1.1,15,1.1,15.9,1.1L15.9,1.1z"/>
</svg>
