<?xml version="1.0" encoding="UTF-8"?>
<svg width="312px" height="448px" viewBox="0 0 312 448" version="1.1" xmlns="http://www.w3.org/2000/svg" xmlns:xlink="http://www.w3.org/1999/xlink">
    <!-- Generator: Sketch 47.1 (45422) - http://www.bohemiancoding.com/sketch -->
    <title>Artboard Copy</title>
    <desc>Created with Sketch.</desc>
    <defs>
        <path d="M157.174944,279.039963 L157.27706,279.188911 C157.272239,279.183654 157.21395,279.143789 157.174944,279.039963 L157.174944,279.039963 Z M85.5510869,271.451494 C85.4682544,271.492235 85.5133959,271.468579 85.5563462,271.445799 L85.565988,271.441418 C85.5611671,271.444484 85.5563462,271.448427 85.5510869,271.451494 L85.5510869,271.451494 Z M268.996253,251.543261 L268.969519,251.380294 L263.585841,218.251162 C263.514842,216.761242 263.03231,215.29936 262.195657,214.076233 C261.70173,213.38231 261.383548,213.058567 261.016718,212.597704 L259.936388,211.290903 L255.613757,206.064576 L246.968931,195.611483 C241.203085,188.644215 235.429788,181.683518 229.7402,174.655794 L225.459642,169.400116 C224.912684,168.714078 224.581354,167.950938 224.480552,166.997232 L224.050174,163.634508 L222.390455,150.17573 L221.559938,143.446341 L221.353076,141.764103 C221.299169,141.260308 221.19267,140.476578 220.965209,139.85231 C220.520368,138.551204 219.69774,137.380209 218.60733,136.537338 C218.068261,136.117216 217.455563,135.76894 216.793779,135.516167 C216.176699,135.289678 215.697234,135.151682 215.141949,134.965059 L211.917616,133.913222 C210.140003,133.386646 208.894009,131.894975 208.687585,130.066417 L207.733038,123.353675 L207.257518,119.996647 L207.033563,118.3166 C207.008582,118.060759 206.934515,117.708541 206.859133,117.367712 C206.796022,117.026446 206.706616,116.690875 206.562426,116.366255 C205.597799,113.670732 202.841974,111.816766 200.022599,111.761567 C198.610501,111.710312 197.158083,112.081368 195.935755,112.855022 C195.355489,113.196288 194.701594,113.801281 194.24974,114.327418 L193.7339,114.999875 L193.200966,115.812957 C192.926611,116.226069 192.483961,116.894583 192.232395,117.561345 C191.963737,118.23205 191.793251,118.94262 191.729703,119.664142 C191.677987,120.418083 191.700777,120.90304 191.684123,121.48569 L191.656074,123.181071 L191.511884,129.960839 L191.223065,143.521691 L191.150313,146.912013 C191.138918,148.231957 191.113937,148.697201 190.806711,149.376667 C190.541559,149.996992 190.008626,150.559929 189.511193,150.866148 C189.495853,150.882357 189.368756,150.954641 189.236837,151.026049 L188.931365,151.183758 L188.175354,151.567519 L186.663769,152.336354 L183.640162,153.873587 C183.341702,154.025163 183.240462,154.074228 183.083124,154.131179 C182.934113,154.192511 182.778528,154.231938 182.622505,154.267861 C182.311335,154.337954 181.989209,154.358544 181.673656,154.330945 C181.358542,154.30466 181.048687,154.233252 180.756801,154.121979 L180.545556,154.030858 L180.383835,153.944994 L179.732569,153.548529 L176.851399,151.757647 L165.328472,144.594556 L162.448178,142.804111 L161.728105,142.356391 L161.367849,142.132092 L161.204375,142.010305 C160.998389,141.84252 160.799854,141.669039 160.656979,141.449998 C160.091614,140.682477 160.029818,139.644221 160.417685,138.826758 C164.734619,134.239594 169.008603,129.61344 173.257168,124.964944 L173.507419,124.692018 L173.724361,124.307819 C174.979997,122.087178 175.294235,119.208536 174.419015,116.757025 C173.613918,114.284486 171.710522,112.215859 169.28515,111.13029 C168.664563,110.892849 168.089118,110.659789 167.259478,110.521355 L166.678335,110.423663 L166.341308,110.392559 L166.040656,110.368902 L165.890769,110.357512 L165.815387,110.351379 L165.40473,110.343493 L162.993383,110.387302 L158.170249,110.490251 L138.878593,110.900297 L137.672919,110.937096 C137.645309,110.940162 137.420477,110.930086 137.305651,110.904677 C137.165406,110.879707 137.02779,110.839403 136.894995,110.785957 C136.837143,110.763177 136.736342,110.710607 136.753873,110.725064 L136.295883,110.454328 L134.228576,109.212802 L133.194264,108.592039 C132.940946,108.439148 132.319044,108.058016 131.714235,107.797795 C129.299382,106.723178 126.450205,106.739825 124.062962,107.813566 C122.848085,108.370807 121.826483,109.088824 120.863172,110.163441 C120.193499,110.956809 120.308325,110.849917 119.836311,111.54384 L119.187237,112.559754 C115.701696,117.963505 112.321777,123.435597 108.909865,128.887098 L106.354328,132.977915 L105.076778,135.023324 L104.497389,135.945926 C104.397902,136.097064 104.287458,136.241632 104.15817,136.36999 C103.896962,136.620135 103.594119,136.844872 103.246573,136.981992 C102.860898,137.128749 102.65053,137.189205 101.942289,137.194462 C101.178389,137.230385 100.385563,136.923289 99.8280872,136.346334 C99.6777615,136.249079 99.0896066,135.333924 98.6644872,134.729808 L97.2984075,132.741351 L96.5472171,131.659724 C96.1957266,131.18309 95.7977798,130.741503 95.357321,130.347228 C94.4728973,129.566127 93.4355183,128.961573 92.3179363,128.607602 C91.2494403,128.230412 89.8710891,128.159443 89.082646,128.215518 L86.670422,128.28123 L86.0555328,128.298753 C85.7675911,128.307515 85.4805259,128.327229 85.1960903,128.365342 C84.6263426,128.43894 84.0657986,128.571679 83.5254148,128.760054 C82.455604,129.126292 81.4283051,129.765016 80.648189,130.497929 L66.7800923,144.000515 L59.8747504,150.741733 L56.4220795,154.111904 C55.0389074,155.420895 54.22373,157.31166 54.2066376,159.204177 L51.2145857,171.512551 L51.1777713,171.664565 L51.1804009,171.771458 C51.2058204,172.702821 50.9525018,173.645576 50.45463,174.452524 C49.9361596,175.290576 49.2603512,175.839932 48.2575953,176.389726 L42.4654527,179.858465 L30.8802911,186.795506 L7.57103703,200.431708 C5.70182638,201.483544 4.47423927,203.569694 4.45714684,205.7255 C2.96879059,214.066595 1.5834272,222.424776 0.010047075,230.750539 L0.0017199936,230.793909 L0.000843458709,230.861812 C-0.021508181,232.218554 0.400981636,233.584496 1.19643705,234.700293 L1.21572082,234.72833 L1.25472662,234.770386 C5.40073665,239.320314 9.5989005,243.820738 13.7028369,248.410531 L25.9519737,262.013439 C26.3420317,262.606603 26.5843936,263.287383 26.6422449,263.981306 C26.6764298,264.321697 26.6540781,264.707648 26.6028008,265.005544 L26.3446613,266.431503 L25.3305104,272.176521 L24.3163596,277.921538 L24.1914533,278.603633 C24.1239602,278.925185 24.0967876,279.254186 24.0678619,279.583186 C24.0314857,280.242938 24.0801334,280.907948 24.2054779,281.558939 C24.4623026,282.860483 25.049581,284.102886 25.9173505,285.127561 C26.3735869,285.652384 26.7895028,286.072506 27.4596137,286.536873 L27.7970796,286.761172 L28.1862611,286.999051 L28.8138601,287.370545 L31.3246943,288.856521 L36.3468009,291.828913 L38.8571968,293.315328 L39.4852341,293.68726 C39.7157628,293.816056 40.0817161,294.019765 40.3902564,294.150314 C41.0375774,294.446457 41.7313547,294.636585 42.4338975,294.761877 C43.8455569,294.994499 45.3155059,294.864826 46.6754498,294.384688 C48.0371467,293.906301 49.2774436,293.064744 50.2464529,291.981804 L50.354705,291.860455 L50.5269441,291.590158 L57.6851663,280.385753 C58.1655074,279.913938 58.9346668,279.645832 59.4395509,279.688326 L64.0277727,280.422552 L73.950586,282.03864 L75.1913211,282.241034 L75.5011762,282.291413 L75.8649381,282.325584 L75.9937888,282.332593 L76.2519283,282.344421 C76.5964065,282.366325 76.9430761,282.346612 77.2893073,282.327774 C78.6755473,282.23972 80.0394356,281.814779 81.2516833,281.136627 C82.4700668,280.463732 83.5223469,279.503017 84.3449749,278.373201 C84.7617673,277.794056 85.0891531,277.221482 85.3915576,276.520111 C85.5414451,276.159569 85.7259557,275.635622 85.7504986,275.524349 L85.84122,275.223386 L85.9634966,274.748504 C86.0726252,274.277127 86.1462541,274.122922 86.313234,273.232738 C86.4258688,272.543634 86.4512883,272.021877 86.4832818,271.566709 C86.4881027,271.378334 86.5003742,271.205291 86.5135223,271.042324 L88.7289642,270.10877 C94.911603,267.523206 101.075396,264.894709 107.224727,262.233794 L116.458145,258.262136 L118.7665,257.269441 L119.331427,257.027181 C119.384895,257.016229 119.43179,256.985125 119.48482,256.978115 C119.585622,256.944383 119.690806,256.931679 119.795552,256.925107 C120.203579,256.898823 120.604594,257.060913 120.889906,257.339534 C126.935367,264.395295 132.952341,271.476464 139.064857,278.475274 L139.170041,278.596185 L139.282676,278.709211 C141.047579,280.486512 143.515901,281.580405 146.015778,281.692116 C148.515218,281.826608 151.078206,280.981546 153.007897,279.388239 L153.005268,279.384296 L153.008336,279.387801 C153.053039,279.370277 153.138939,279.299308 153.308987,279.220453 C153.482103,279.143789 153.702113,279.066686 153.950172,278.997469 C154.450674,278.862978 155.060304,278.797265 155.622601,278.820046 C155.902215,278.833626 156.177447,278.856406 156.417618,278.904157 C156.657789,278.948404 156.874731,279.008421 157.023304,279.070191 C157.124543,279.091657 157.147772,279.133275 157.206499,279.152112 C157.274431,279.167883 157.261283,279.188035 157.280128,279.19373 L157.409855,279.38342 C161.358645,284.607995 165.296478,289.840455 169.293039,295.029108 L181.241086,310.626606 L181.01757,310.299358 C182.178978,312.150258 183.88866,313.583226 185.984893,314.37309 L186.374074,314.510648 L186.689627,314.610092 L187.140604,314.74327 L188.042997,315.008748 L189.847344,315.541018 L197.066047,317.669224 L204.283435,319.796992 L207.893006,320.861095 L209.697353,321.393366 L210.75796,321.698271 C211.272924,321.829258 211.797969,321.917751 212.326519,321.963312 C213.38362,322.055309 214.454746,321.973826 215.484675,321.724118 C216.556677,321.436298 216.948926,321.255808 217.588797,321.05648 L221.155855,319.86139 L228.291726,317.470773 L231.859223,316.275683 L233.64341,315.678138 L234.113671,315.519552 C234.360853,315.43544 234.604092,315.340815 234.844262,315.238303 C235.323289,315.030214 235.784784,314.784011 236.22349,314.501886 C237.10134,313.93895 237.886277,313.233198 238.535789,312.417926 C238.707152,312.20239 238.833811,312.034604 239.017445,311.759926 L239.229566,311.429174 L239.454398,311.040156 L239.891789,310.207799 L241.640476,306.877056 L255.554152,280.193873 L262.440649,266.814826 L265.883678,260.124864 L267.592921,256.773531 L268.026805,255.928907 C268.244186,255.503967 268.428697,255.06238 268.575516,254.608526 C268.868279,253.701256 269.011154,252.748426 268.999321,251.799101 L268.996253,251.543261 Z" id="path-1"></path>
        <filter x="-28.6%" y="-22.8%" width="158.7%" height="191.2%" filterUnits="objectBoundingBox" id="filter-2">
            <feOffset dx="2" dy="68" in="SourceAlpha" result="shadowOffsetOuter1"></feOffset>
            <feGaussianBlur stdDeviation="15" in="shadowOffsetOuter1" result="shadowBlurOuter1"></feGaussianBlur>
            <feColorMatrix values="0 0 0 0 0.392156863   0 0 0 0 0.392156863   0 0 0 0 0.392156863  0 0 0 0.2 0" type="matrix" in="shadowBlurOuter1"></feColorMatrix>
        </filter>
        <filter x="-113.8%" y="-113.8%" width="327.5%" height="327.5%" filterUnits="objectBoundingBox" id="filter-3">
            <feGaussianBlur stdDeviation="4.55078125" in="SourceGraphic"></feGaussianBlur>
        </filter>
    </defs>
    <g id="Page-1" stroke="none" stroke-width="1" fill="none" fill-rule="evenodd">
        <g id="Artboard-Copy">
            <g id="Group-6" transform="translate(15.000000, 35.000000)">
                <g id="Fill-1-Copy">
                    <use fill="black" fill-opacity="1" filter="url(#filter-2)" xlink:href="#path-1"></use>
                    <use fill="#FFFFFF" fill-rule="evenodd" xlink:href="#path-1"></use>
                </g>
                <circle id="Oval-4-Copy-3" fill="#D0021B" cx="232" cy="293" r="6"></circle>
                <path d="M123,165 L123,73" id="Path-2-Copy" stroke="#646464" stroke-width="2" stroke-dasharray="1,3"></path>
                <text id="96%" font-family="HelveticaNeue-LightItalic, Helvetica Neue" font-size="42" font-style="italic" font-weight="300" line-spacing="20" fill="#D0021B">
                    <tspan x="79.5" y="40">96%</tspan>
                </text>
                <text id="австралийцев" font-family="HelveticaNeue-ThinItalic, Helvetica Neue" font-size="20" font-style="italic" font-weight="300" fill="#D0021B">
                    <tspan x="59.37" y="59">австралийцев</tspan>
                </text>
                <circle id="Combined-Shape" fill="#646464" cx="123" cy="71" r="3"></circle>
                <circle id="Oval-4-Copy-4" fill="#D0021B" opacity="0.67261096" filter="url(#filter-3)" cx="232" cy="293" r="6"></circle>
            </g>
        </g>
    </g>
</svg>