<?xml version="1.0" encoding="UTF-8"?>
<svg width="254px" height="446px" viewBox="0 0 254 446" version="1.1" xmlns="http://www.w3.org/2000/svg" xmlns:xlink="http://www.w3.org/1999/xlink">
    <!-- Generator: Sketch 47.1 (45422) - http://www.bohemiancoding.com/sketch -->
    <title>Artboard Copy 2</title>
    <desc>Created with Sketch.</desc>
    <defs>
        <filter x="-36.4%" y="-20.5%" width="195.1%" height="182.1%" filterUnits="objectBoundingBox" id="filter-1">
            <feOffset dx="18" dy="64" in="SourceAlpha" result="shadowOffsetOuter1"></feOffset>
            <feGaussianBlur stdDeviation="15" in="shadowOffsetOuter1" result="shadowBlurOuter1"></feGaussianBlur>
            <feColorMatrix values="0 0 0 0 0.392156863   0 0 0 0 0.392156863   0 0 0 0 0.392156863  0 0 0 0.21 0" type="matrix" in="shadowBlurOuter1" result="shadowMatrixOuter1"></feColorMatrix>
            <feMerge>
                <feMergeNode in="shadowMatrixOuter1"></feMergeNode>
                <feMergeNode in="SourceGraphic"></feMergeNode>
            </feMerge>
        </filter>
        <filter x="-107.9%" y="-107.9%" width="315.8%" height="315.8%" filterUnits="objectBoundingBox" id="filter-2">
            <feGaussianBlur stdDeviation="3.23660714" in="SourceGraphic"></feGaussianBlur>
        </filter>
    </defs>
    <g id="Page-1" stroke="none" stroke-width="1" fill="none" fill-rule="evenodd">
        <g id="Artboard-Copy-2">
            <g id="Group-7" transform="translate(-1.000000, 27.000000)">
                <g id="Group-17-Copy" filter="url(#filter-1)" transform="translate(134.000000, 200.500000) rotate(-37.000000) translate(-134.000000, -200.500000) translate(53.000000, 86.000000)" fill="#FFFFFF">
                    <path d="M79.4295301,110.97718 C78.8840722,110.968909 78.3539726,111.160912 77.9364921,111.517961 L69.0563438,119.138504 C68.5650583,119.559397 68.2724584,120.172473 68.2512744,120.825342 L68.0024359,128.679066 L58.3513729,138.755449 C58.0150528,139.107399 57.7979686,139.5593 57.7317138,140.045386 L55.916649,153.227536 L38.9126279,166.737131 L24.7922137,177.150882 C24.6481128,177.258812 24.5170884,177.383714 24.4018774,177.522978 L16.3853477,187.078425 C16.3406283,187.126689 12.9982434,190.731071 9.60325485,194.535246 C7.89446894,196.450035 6.18303999,198.403886 4.8753074,199.977782 C4.2214411,200.76473 3.66966429,201.451072 3.24565295,202.031755 C3.03355985,202.322097 2.8556015,202.577568 2.68942443,202.860291 C2.52329732,203.143013 2.21613955,203.161239 2.21613955,204.408213 C2.21613955,204.164356 2.200661,204.590941 2.14295369,205.018454 C2.08599582,205.44622 2.00166571,206.020174 1.89899166,206.685448 C1.69364357,208.016249 1.41435767,209.706851 1.13783723,211.358985 C0.584846313,214.663249 0.0351379656,217.828506 0.0351379656,217.828506 C-0.178835537,219.056089 0.605826088,220.234202 1.80628774,220.48776 L22.0403419,224.714779 L40.3275962,228.941798 C41.1475821,229.132682 42.0040996,228.846194 42.5525128,228.197606 L57.5316668,210.4213 C57.7256458,210.191543 57.8732054,209.925175 57.9659156,209.637415 L62.6841052,194.966876 C62.7273366,194.832789 62.7583682,194.694948 62.7768092,194.55509 L64.2747236,183.129236 L85.879836,173.216576 C86.4465787,172.955781 86.8830265,172.469637 87.0869265,171.872038 C87.2908264,171.27444 87.2442614,170.6179 86.9581408,170.056235 L83.9623095,164.191988 L86.7971249,159.751633 L97.8387617,145.155516 C98.0292092,144.905591 98.167058,144.6185 98.2437371,144.312095 L100.463775,135.282546 C100.520945,135.050829 100.542343,134.811483 100.527203,134.573081 L99.6928601,121.594344 C99.6448559,120.856215 99.2513871,120.186356 98.6350109,119.793411 C98.0186346,119.400467 97.2542431,119.332183 96.5799279,119.609827 L86.8849524,123.598704 L81.4348817,112.267117 C81.0587884,111.48734 80.2835879,110.988694 79.4295301,110.97718 L79.4295301,110.97718 Z" id="Shape"></path>
                    <path d="M76.2403235,0 C75.4010234,0.046397195 74.6565943,0.565172156 74.3087038,1.34609989 C73.9608133,2.12702761 74.0671578,3.04059396 74.584643,3.71659122 L81.071421,12.2003298 L81.5666696,17.9982118 C81.6060017,18.4618281 81.7820565,18.902399 82.0716284,19.2618531 L89.7042731,28.7168595 L98.5653281,43.5237597 L102.789503,59.1383981 L101.454276,72.4586605 L100.026796,82.176307 L95.1180128,83.4845471 C94.5831096,83.6276065 94.118318,83.9661923 93.8119191,84.4359944 L90.4957004,89.505425 C90.0214626,90.2327089 89.9913732,91.1712739 90.4180145,91.9286421 L93.7293781,97.8454545 C93.9850513,98.3016927 94.385972,98.6549206 94.8655347,98.8464557 L102.498179,101.903971 L107.795393,104.609651 L110.519256,110.382754 L105.629896,118.613766 C105.55335,118.745735 105.489915,118.88518 105.440536,119.030023 L102.954585,126.071725 C102.721314,126.731228 102.795203,127.463277 103.155311,128.060393 C103.515418,128.657509 104.122495,129.054612 104.804483,129.139153 L109.912334,129.763538 L110.286199,133.564373 C110.375259,134.476003 110.985405,135.247001 111.839892,135.527665 C112.69438,135.80833 113.630598,135.545248 114.223905,134.857747 L118.127626,130.338372 L125.274735,126.017216 C125.59847,125.820824 125.86888,125.544839 126.061304,125.21443 L134.621328,110.561152 C134.676426,110.468952 134.725099,110.372909 134.766987,110.273736 L139.180522,99.569954 C139.337853,99.1884884 139.391526,98.7707926 139.335894,98.3608217 L138.452216,91.8245766 L143.564924,89.2130516 L149.104903,92.9841549 C149.806124,93.4607602 150.709124,93.4988657 151.446502,93.0829677 C152.183881,92.6670697 152.632751,91.8664791 152.610484,91.0069281 L152.387136,81.9235773 L153.843747,81.809604 C154.520595,81.7556361 155.137638,81.3934322 155.523707,80.8234682 L158.009658,77.1613855 C158.270293,76.7752429 158.409199,76.317087 158.407798,75.8481903 L158.407798,69.4308761 L161.685174,63.7767037 C161.992992,63.2461817 162.079466,62.6118207 161.92523,62.0156895 C161.770993,61.4195583 161.388934,60.9114696 160.864616,60.6052127 L155.062447,57.2255931 C154.722686,57.0258749 154.337791,56.9199817 153.94571,56.9183543 L151.736515,56.9183543 C151.290705,56.9180389 150.854798,57.0525415 150.48383,57.3048804 L145.516783,60.6894551 C145.41359,60.758817 145.316154,60.8367146 145.22546,60.9223618 L141.326596,64.638951 L140.45263,65.0849438 L129.605726,59.1681289 C129.37443,59.0403331 129.12302,58.9548024 128.862854,58.9154016 L126.503142,58.5734769 L122.725663,42.8944166 C122.467553,41.8243324 121.502686,41.0909597 120.424217,41.1451414 L114.903658,41.427602 C113.872401,41.4811831 113.008433,42.2425327 112.806137,43.2759876 L109.805518,38.7070564 L106.698079,27.0567819 C106.694956,27.0435391 106.691719,27.0303249 106.688366,27.0171408 L103.377003,15.4659741 C103.198778,14.8443253 102.772241,14.3280458 102.202003,14.0437582 L88.7671865,7.3241623 L77.5367096,0.336970926 C77.1473621,0.0951894558 76.6953918,-0.0205639801 76.2403235,0.00495539136 L76.2403235,0 Z" id="Shape"></path>
                </g>
                <circle id="Oval-4-Copy-5" fill="#D0021B" cx="166.5" cy="187.5" r="4.5"></circle>
                <text id="94%" font-family="HelveticaNeue-LightItalic, Helvetica Neue" font-size="42" font-style="italic" font-weight="300" line-spacing="20" fill="#D0021B">
                    <tspan x="39" y="40">94%</tspan>
                    <tspan x="142.656" y="68.2157898" font-family="HelveticaNeue-ThinItalic, Helvetica Neue"></tspan>
                </text>
                <polyline id="Path-3" stroke="#646464" stroke-width="2" stroke-dasharray="1,3" points="138 151 138 71 79 71.1489233"></polyline>
                <circle id="Combined-Shape-Copy" fill="#646464" cx="79" cy="71" r="3"></circle>
                <circle id="Oval-4-Copy-10" fill="#D0021B" opacity="0.733752264" filter="url(#filter-2)" cx="166.5" cy="187.5" r="4.5"></circle>
                <text id="новозеландцев" font-family="HelveticaNeue-ThinItalic, Helvetica Neue" font-size="20" font-style="italic" font-weight="300" fill="#D0021B">
                    <tspan x="10.12" y="61">новозеландцев</tspan>
                </text>
            </g>
        </g>
    </g>
</svg>