<?xml version="1.0" encoding="utf-8"?>
<!-- Generator: Adobe Illustrator 21.0.2, SVG Export Plug-In . SVG Version: 6.00 Build 0)  -->
<svg version="1.1" id="Слой_1" xmlns="http://www.w3.org/2000/svg" xmlns:xlink="http://www.w3.org/1999/xlink" x="0px" y="0px"
	 viewBox="0 0 36 31.3" enable-background="new 0 0 36 31.3" xml:space="preserve">
<path fill="#1AB798" d="M21,7.8c0-1.7-1.3-3-3-3c-1.7,0-3,1.3-3,3c0,1.7,1.3,3,3,3C19.7,10.8,21,9.5,21,7.8z M16.2,7.8
	C16.2,6.8,17,6,18,6c1,0,1.8,0.8,1.8,1.8c0,1-0.8,1.8-1.8,1.8C17,9.6,16.2,8.8,16.2,7.8L16.2,7.8z M18,25.6l0.5-0.6
	c0.3-0.4,8-9.8,8-16c0-5-3.8-9-8.4-9C13.4,0,9.6,4,9.6,9c0,6.2,7.6,15.6,7.9,16L18,25.6z M18,1.2c4,0,7.2,3.5,7.2,7.8
	c0,4.9-5.6,12.5-7.2,14.7c-1.7-2.2-7.2-9.7-7.2-14.7C10.8,4.7,14,1.2,18,1.2L18,1.2z M4.9,19.3l-4.6,8.4c-0.6,1.2-0.2,2.6,0.9,3.2
	c0.4,0.2,0.8,0.3,1.2,0.3h31.2c1.3,0,2.4-1.1,2.4-2.4c0-0.4-0.1-0.8-0.3-1.2l-4.6-8.4C30.6,18.5,29.8,18,29,18h-4.4
	c-0.3,0-0.6,0.3-0.6,0.6c0,0.3,0.3,0.6,0.6,0.6H29c0.4,0,0.8,0.2,1,0.6l4.6,8.4c0.3,0.6,0.1,1.3-0.5,1.6C34,30,33.8,30.1,33.6,30
	H2.4c-0.7,0-1.2-0.5-1.2-1.2c0-0.2,0.1-0.4,0.1-0.6L6,19.8c0.2-0.4,0.6-0.6,1-0.6h4.4c0.3,0,0.6-0.3,0.6-0.6c0-0.3-0.3-0.6-0.6-0.6
	H7C6.2,18,5.4,18.5,4.9,19.3z"/>
</svg>
