<?xml version="1.0" ?><!DOCTYPE svg  PUBLIC '-//W3C//DTD SVG 1.1//EN'  'http://www.w3.org/Graphics/SVG/1.1/DTD/svg11.dtd'><svg enable-background="new 0 0 512 512" height="512px" id="Layer_1" version="1.1" viewBox="0 0 512 512" width="512px" xml:space="preserve" xmlns="http://www.w3.org/2000/svg" xmlns:xlink="http://www.w3.org/1999/xlink"><path d="M0,256c0,215.85,40.15,256,256,256c215.451,0,256-39.281,256-256C512,40.971,471.451,0,256,0  C39.492,0,0,40.278,0,256z" fill="#4965A2"/><path d="M169,508.712V3.275C42.902,14.973,7.053,61.851,1,203.334v105.053C7.087,450.095,43.216,496.995,169,508.712  z" fill="#4D69A5"/><path d="M256,512c194.215,0,246.305-31.926,254.687-196.963L35.301,358.263l8.159,102.901  C79.875,501.283,144.492,512,256,512z" fill="#4D69A5"/><path d="M248.753,0.017c-1.358,0.006-2.712,0.013-4.056,0.023c-0.545,0.004-1.087,0.008-1.629,0.013  c-1.402,0.011-2.796,0.024-4.182,0.04c-0.428,0.005-0.857,0.009-1.284,0.014c-1.706,0.02-3.403,0.043-5.086,0.07  c-0.086,0.001-0.172,0.002-0.258,0.004c-5.698,0.091-11.261,0.217-16.692,0.382c-0.041,0.001-0.082,0.003-0.122,0.004  c-1.799,0.055-3.585,0.114-5.356,0.177L13.279,402.191c17.834,65.111,56.915,93.606,136.05,104.298L393.136,11.155  c-1.066-0.251-2.142-0.497-3.226-0.739c-0.298-0.066-0.602-0.13-0.901-0.196c-0.788-0.173-1.577-0.345-2.375-0.513  c-0.393-0.083-0.792-0.162-1.188-0.244c-0.713-0.147-1.427-0.294-2.147-0.437c-0.439-0.087-0.883-0.171-1.324-0.257  c-0.686-0.133-1.372-0.266-2.065-0.395c-0.468-0.087-0.941-0.172-1.413-0.258c-0.676-0.123-1.353-0.246-2.036-0.366  c-0.487-0.086-0.979-0.169-1.469-0.253c-0.678-0.116-1.358-0.231-2.043-0.344c-0.5-0.082-1.003-0.163-1.506-0.244  c-0.683-0.11-1.369-0.218-2.058-0.325c-0.515-0.08-1.032-0.158-1.551-0.236c-0.685-0.103-1.372-0.205-2.063-0.305  c-0.532-0.077-1.066-0.154-1.603-0.229c-0.693-0.098-1.389-0.194-2.089-0.288c-0.535-0.073-1.07-0.145-1.608-0.216  c-0.714-0.094-1.432-0.186-2.152-0.277c-0.537-0.068-1.074-0.136-1.615-0.203c-0.728-0.089-1.462-0.177-2.197-0.263  c-0.54-0.064-1.08-0.128-1.624-0.19c-0.756-0.086-1.519-0.17-2.282-0.254c-0.531-0.058-1.061-0.117-1.596-0.174  c-0.793-0.084-1.593-0.165-2.393-0.247c-0.514-0.052-1.026-0.106-1.543-0.157c-0.852-0.084-1.712-0.164-2.571-0.245  c-0.476-0.045-0.948-0.091-1.427-0.134c-0.99-0.09-1.99-0.177-2.991-0.263c-0.355-0.031-0.706-0.063-1.063-0.093  c-2.73-0.229-5.502-0.443-8.314-0.642c-0.464-0.033-0.934-0.063-1.399-0.095c-0.944-0.065-1.888-0.13-2.842-0.191  c-0.55-0.035-1.107-0.068-1.661-0.103c-0.881-0.055-1.762-0.11-2.651-0.162c-0.594-0.035-1.194-0.067-1.792-0.101  c-0.855-0.048-1.709-0.096-2.571-0.141c-0.627-0.033-1.259-0.064-1.89-0.096c-0.847-0.043-1.695-0.085-2.549-0.126  c-0.645-0.03-1.295-0.059-1.944-0.089c-0.847-0.038-1.694-0.076-2.548-0.112c-0.668-0.028-1.34-0.055-2.013-0.082  c-0.848-0.034-1.697-0.067-2.551-0.098c-0.682-0.025-1.367-0.05-2.053-0.074c-0.849-0.03-1.701-0.058-2.557-0.086  c-0.707-0.023-1.416-0.045-2.128-0.067c-0.851-0.026-1.705-0.05-2.563-0.074c-0.714-0.02-1.429-0.039-2.147-0.058  c-0.878-0.023-1.761-0.044-2.645-0.065c-0.707-0.017-1.414-0.033-2.126-0.048c-0.904-0.019-1.815-0.037-2.726-0.055  c-0.709-0.014-1.417-0.028-2.129-0.04c-0.922-0.016-1.851-0.03-2.779-0.045c-0.711-0.011-1.42-0.022-2.135-0.032  c-0.954-0.013-1.915-0.024-2.877-0.035c-0.701-0.008-1.399-0.017-2.104-0.024c-1.023-0.01-2.055-0.018-3.086-0.026  c-0.649-0.005-1.294-0.011-1.947-0.015c-1.149-0.007-2.309-0.012-3.468-0.017c-0.55-0.002-1.095-0.006-1.648-0.008  C259.462,0.003,257.737,0,256,0c-1.889,0-3.76,0.004-5.622,0.01C249.834,0.012,249.295,0.015,248.753,0.017z" fill="#3A589B"/><path d="M510.724,314.297L302.534,0.784C288.01,0.242,272.521,0,256,0c-21.71,0-41.635,0.406-59.924,1.353  L485.397,437.04C500.729,407.935,508.037,368.182,510.724,314.297z" fill="#3A589B"/><path d="M0.443,219.628L455.206,38.837C424.402,14.48,378.047,4.146,309.31,1.063L10.693,119.778  C4.519,146.861,1.491,179.764,0.443,219.628z" fill="#4965A2"/><path d="M509.285,336.474C511.214,312.831,512,286.133,512,256c0-2.863-0.009-5.688-0.023-8.49L0.109,237.312  C0.036,243.392,0,249.616,0,256c0,25.912,0.581,49.284,1.973,70.367L509.285,336.474z" fill="#4D69A5"/><path d="M248.392,511.981L29.115,70.311c-18.651,32.11-26.377,77.958-28.482,142.773l145.443,292.951  C174.569,510.12,208.371,511.797,248.392,511.981z" fill="#425D9E"/><path d="M354.109,507.608L243.014,0.053c-34.543,0.28-64.346,1.731-90.021,4.96L263.958,511.98  C298.432,511.816,328.288,510.559,354.109,507.608z" fill="#425D9E"/><path d="M26.63,436.918c14.557,27.582,36.354,45.648,68.317,57.128L479.571,65.73  c-16.21-25.031-39.827-41.17-73.652-51.187L26.63,436.918z" fill="#4965A2"/><path d="M158.708,507.652C186.312,510.786,218.502,512,256,512c170.466,0,231.439-24.595,249.471-142.204  L158.708,507.652z" fill="#4965A2"/><path d="M255.088,511.999c0.305,0,0.606,0.001,0.912,0.001c35.571,0,66.372-1.072,93.013-3.835l130.555-442.44  c-16.799-25.938-41.549-42.329-77.375-52.252L255.088,511.999z" fill="#425D9E"/><g><path d="M353.75,148.792l-35.439,0.017c-27.784,0-33.165,13.266-33.165,32.734v30.179h66.27l-8.63,67.242h-57.641   V426h-69.112V278.962H158.25v-67.242h57.787v-36.839c0-57.545,34.98-88.882,86.076-88.882c24.474,0,45.509,1.832,51.638,2.65   V148.792z" fill="#FFFFFF"/></g><g opacity="0.5"><polygon fill="#142C51" points="216.035,278.962 158.25,278.962 158.25,277.75 157.44,278.56 216.035,337.155  "/><path d="M353.75,148.792l-35.439,0.017c-27.784,0-33.165,13.266-33.165,32.734v30.179h66.27l-8.63,67.242h-57.641   V426h-68.231l85.256,85.256C477.378,504.998,512,456.238,512,256c0-2.841-0.009-5.645-0.023-8.425L353.75,89.348V148.792z" fill="#142C51"/><polygon fill="#142C51" points="216.035,422.862 214.906,423.991 216.035,425.119  "/><path d="M352.95,88.548l-2.749-2.749l-2.224,2.224C350.023,88.215,351.699,88.395,352.95,88.548z" fill="#142C51"/></g></svg>