<svg width="84" height="54" viewBox="0 0 84 54" version="1.1" xmlns="http://www.w3.org/2000/svg" xmlns:xlink="http://www.w3.org/1999/xlink">
<g id="Canvas" fill="none">
<g id="Group 2 Copy">
<path id="Star" fill-rule="evenodd" clip-rule="evenodd" d="M 3.82987 5.79512L 1.57873 6.98898L 2.00866 4.46034L 0.187447 2.66955L 2.7043 2.30063L 3.82987 0L 4.95544 2.30063L 7.47229 2.66955L 5.65108 4.46034L 6.08101 6.98898L 3.82987 5.79512Z" transform="translate(48.4053 2.8396)" fill="#FE813F"/>
<path id="Star Copy" fill-rule="evenodd" clip-rule="evenodd" d="M 2.82681 4.27735L 1.16525 5.15854L 1.48258 3.29216L 0.138354 1.97038L 1.99603 1.69808L 2.82681 0L 3.65758 1.69808L 5.51526 1.97038L 4.17103 3.29216L 4.48836 5.15854L 2.82681 4.27735Z" transform="translate(38.2207 8.35889)" fill="#B8E986"/>
<path id="Star Copy 3" fill-rule="evenodd" clip-rule="evenodd" d="M 2.78052 4.20731L 1.14617 5.07407L 1.4583 3.23825L 0.136088 1.93812L 1.96335 1.67028L 2.78052 0L 3.59769 1.67028L 5.42495 1.93812L 4.10274 3.23825L 4.41487 5.07407L 2.78052 4.20731Z" transform="translate(17.2168 3.75952)" fill="#FE813F"/>
<path id="Star Copy 4" fill-rule="evenodd" clip-rule="evenodd" d="M 2.78052 4.20731L 1.14617 5.07407L 1.4583 3.23825L 0.136088 1.93812L 1.96335 1.67028L 2.78052 0L 3.59769 1.67028L 5.42495 1.93812L 4.10274 3.23825L 4.41487 5.07407L 2.78052 4.20731Z" transform="translate(36.3389 19.7651)" fill="#FE813F"/>
<g id="Page 1">
<g id="Group 3">
<mask id="mask0" mask-type="alpha" maskUnits="userSpaceOnUse" x="0" y="41" width="84" height="13">
<path id="Clip 2" fill-rule="evenodd" clip-rule="evenodd" d="M 0 0L 82.9606 0L 82.9606 12.4433L 0 12.4433L 0 0Z" transform="translate(0.541748 41.1985)" fill="white"/>
</mask>
<g mask="url(#mask0)">
<path id="Fill 1" fill-rule="evenodd" clip-rule="evenodd" d="M 81.3184 1.45914L 45.3716 6.23745C 44.5544 7.87959 42.851 8.98636 40.9104 8.9262C 38.9699 8.86549 37.3371 7.65551 36.6217 5.96591L 2.35219 0.0282078C 1.25211 -0.159996 0.212939 0.613239 0.0281931 1.76067C -0.15637 2.90829 0.584618 3.99244 1.68324 4.18303L 36.3127 10.1833C 37.3736 11.5117 38.9803 12.3836 40.8031 12.4404C 42.6256 12.4967 44.2823 11.7261 45.4221 10.4664L 82.9607 6.02919L 81.3184 1.45914Z" transform="translate(0.541748 41.1985)" fill="#D0021B"/>
</g>
</g>
<path id="Fill 4" fill-rule="evenodd" clip-rule="evenodd" d="M 80.6387 4.67896L 40.8441 11.115L 0.22122 4.59985L 0 2.14236L 6.12195 0L 75.6112 0L 81.0912 2.14236L 80.6387 4.67896Z" transform="translate(0.541748 38.7654)" fill="#F3E4CC"/>
<g id="Group 13">
<path id="Fill 5" fill-rule="evenodd" clip-rule="evenodd" d="M 0 4.17378L 36.8287 9.32168C 37.9297 10.6165 39.5622 11.4385 41.3859 11.4385C 43.2093 11.4385 44.8417 10.6165 45.9423 9.32168L 82.1745 4.17378L 81.633 0L 45.7629 5.0964C 44.9964 6.76318 43.3269 7.92202 41.3859 7.92202C 39.4445 7.92202 37.7752 6.76318 37.0089 5.0964L 0.541835 0L 0 4.17378Z" transform="translate(0 40.9075)" fill="#EBDFCB"/>
<path id="Fill 7" fill-rule="evenodd" clip-rule="evenodd" d="M 62.924 0C 50.2506 1.73412 40.1211 7.39016 40.1211 7.39016C 40.1211 7.39016 29.9917 1.73412 17.3183 0L 0 8.60438C 19.2914 6.72731 40.1211 14.7803 40.1211 14.7803C 40.1211 14.7803 60.9507 6.72731 80.2421 8.60438L 62.924 0Z" transform="translate(1.26465 31.614)" fill="#EFEEEA"/>
<path id="Fill 9" fill-rule="evenodd" clip-rule="evenodd" d="M 57.4387 0C 44.7657 1.73357 37.3784 11.0532 37.3784 11.0532C 37.3784 11.0532 29.9915 1.73357 17.3181 0L 0 8.60456C 19.2914 6.72749 37.3784 18.6264 37.3784 18.6264C 37.3784 18.6264 55.4654 6.72749 74.7568 8.60456L 57.4387 0Z" transform="translate(4.00757 26.342)" fill="#FBFAF6"/>
<path id="Fill 11" fill-rule="evenodd" clip-rule="evenodd" d="M 54.331 0C 42.3437 1.6403 35.356 13.2695 35.356 13.2695C 35.356 13.2695 28.3687 1.6403 16.3811 0L 0 8.13911C 18.2475 6.36378 35.356 20.8376 35.356 20.8376C 35.356 20.8376 52.4646 6.36378 70.7121 8.13911L 54.331 0Z" transform="translate(6.02979 22.157)" fill="white"/>
</g>
</g>
<path id="Oval" d="M 1.82375 3.67944C 2.83097 3.67944 3.64749 2.85577 3.64749 1.83972C 3.64749 0.823671 2.83097 0 1.82375 0C 0.816519 0 0 0.823671 0 1.83972C 0 2.85577 0.816519 3.67944 1.82375 3.67944Z" transform="translate(38.3589 1)" stroke-width="0.6" stroke="#B8E986"/>
<path id="Oval Copy" d="M 2.82681 5.70314C 4.38801 5.70314 5.65361 4.42645 5.65361 2.85157C 5.65361 1.27669 4.38801 0 2.82681 0C 1.2656 0 0 1.27669 0 2.85157C 0 4.42645 1.2656 5.70314 2.82681 5.70314Z" transform="translate(27.3992 5.59937)" stroke-width="0.5" stroke="#FE813F"/>
<path id="Oval Copy 3" d="M 1.18543 2.39164C 1.84013 2.39164 2.37087 1.85625 2.37087 1.19582C 2.37087 0.535386 1.84013 0 1.18543 0C 0.530737 0 0 0.535386 0 1.19582C 0 1.85625 0.530737 2.39164 1.18543 2.39164Z" transform="translate(40.8518 28.2278)" stroke-width="0.6" stroke="#B8E986"/>
<path id="Oval Copy 4" d="M 3.00918 6.07108C 4.67111 6.07108 6.01836 4.71202 6.01836 3.03554C 6.01836 1.35906 4.67111 0 3.00918 0C 1.34726 0 0 1.35906 0 3.03554C 0 4.71202 1.34726 6.07108 3.00918 6.07108Z" transform="translate(61.1917 10.1985)" stroke-width="0.5" stroke="#B8E986"/>
<path id="Oval Copy 2" d="M 1.459 2.94355C 2.26478 2.94355 2.91799 2.28462 2.91799 1.47178C 2.91799 0.658937 2.26478 0 1.459 0C 0.653215 0 0 0.658937 0 1.47178C 0 2.28462 0.653215 2.94355 1.459 2.94355Z" transform="translate(21.1555 15.9019)" stroke-width="0.5" stroke="#B8E986"/>
<path id="Oval Copy 5" d="M 1.91493 3.86341C 2.97252 3.86341 3.82987 2.99856 3.82987 1.93171C 3.82987 0.864855 2.97252 0 1.91493 0C 0.857345 0 0 0.864855 0 1.93171C 0 2.99856 0.857345 3.86341 1.91493 3.86341Z" transform="translate(51.9768 16.4536)" stroke-width="0.5" stroke="#FE813F"/>
</g>
</g>
</svg>
