<?xml version="1.0" encoding="utf-8"?>
<!-- Generator: Adobe Illustrator 21.0.2, SVG Export Plug-In . SVG Version: 6.00 Build 0)  -->
<svg version="1.1" id="Слой_1" xmlns="http://www.w3.org/2000/svg" xmlns:xlink="http://www.w3.org/1999/xlink" x="0px" y="0px"
	 viewBox="0 0 36 36" enable-background="new 0 0 36 36" xml:space="preserve">
<path fill="#1AB798" d="M18.2,0H18C8.1,0,0.1,8,0,17.8C-0.1,27.7,7.9,35.5,17.8,36H18c9.9,0,18-8,18.1-17.9C36.1,8.1,28.1,0,18.2,0z
	 M18,34.9h-0.1C8.5,34.4,1,27.1,1.1,17.9C1.2,8.6,8.7,1.1,18,1.1h0.1c9.3,0,16.9,7.6,16.9,17C35,27.4,27.3,35,18,34.9z M26,9.4
	l-11,5.2c-0.1,0.1-0.2,0.1-0.3,0.3L9.3,25.7c-0.1,0.2-0.1,0.5,0.1,0.6c0.1,0.1,0.2,0.2,0.4,0.2c0.1,0,0.2,0,0.2-0.1l11-5.2
	c0.1-0.1,0.2-0.1,0.3-0.3l5.4-10.8c0.1-0.2,0.1-0.5-0.1-0.6C26.4,9.3,26.2,9.3,26,9.4L26,9.4z M20.4,20.3L11,24.7l4.6-9.2L25,11
	L20.4,20.3z"/>
</svg>
