<?xml version="1.0" encoding="utf-8"?>
<!-- Generator: Adobe Illustrator 21.0.2, SVG Export Plug-In . SVG Version: 6.00 Build 0)  -->
<svg version="1.1" id="Слой_1" xmlns="http://www.w3.org/2000/svg" xmlns:xlink="http://www.w3.org/1999/xlink" x="0px" y="0px"
	 viewBox="0 0 26 35.6" enable-background="new 0 0 26 35.6" xml:space="preserve">
<path fill="#1AB798" d="M23.5,20.7h-0.2c-0.5,0-1,0.2-1.5,0.5v0c0-1.4-1.1-2.6-2.5-2.6h-0.2c-0.6,0.1-1.1,0.3-1.5,0.6v-0.1
	c0-1.4-1-2.6-2.4-2.6h-0.2c-0.6,0.1-1.1,0.3-1.6,0.6v-6.2c0-1.3-1-2.3-2.2-2.4c-0.1,0-0.1,0-0.2,0h-0.2c-1.4-0.1-2.6,1-2.7,2.4v15.9
	l-2.3-2.3c-0.5-0.5-1.1-0.7-1.7-0.7c-0.7,0-1.3,0.3-1.8,0.7L2,24.6c-0.5,0.5-0.7,1.1-0.7,1.8c0,0.7,0.3,1.3,0.7,1.7l6.1,6.7
	c0.4,0.5,1,0.7,1.6,0.7h14.1c1,0,1.8-0.7,2.1-1.6l0.1,0V23.3C26,21.9,24.9,20.7,23.5,20.7z M24.9,33.5c0,0.6-0.5,1-1,1c0,0,0,0,0,0
	H9.8c-0.3,0-0.6-0.1-0.8-0.4l-6.2-6.8c-0.3-0.3-0.4-0.6-0.4-1c0-0.4,0.2-0.7,0.4-1l0.2-0.2c0.3-0.3,0.7-0.4,1-0.4
	c0.4,0,0.7,0.2,1,0.4L9,29.3V10.9c0.1-0.8,0.8-1.4,1.6-1.3h0.2c0.7-0.1,1.3,0.4,1.3,1.1c0,0.1,0,0.1,0,0.2v7.9l1.1,0
	c0.2-0.7,0.8-1.2,1.5-1.3h0.2c0.8,0.1,1.4,0.7,1.4,1.6v1.8l1.1,0c0.1-0.7,0.8-1.3,1.5-1.3h0.2c0.8,0.1,1.4,0.7,1.4,1.6V23l1.1,0
	c0.1-0.7,0.8-1.2,1.5-1.2h0.2c0.8,0,1.5,0.7,1.5,1.5L24.9,33.5z M3.7,9H0v1.1h3.7V9z M11.1,0h-1.1v3.7h1.1V0z M6.8,5.4L4.1,2.7
	L3.3,3.5l2.8,2.7L6.8,5.4z M18,10.1h3.7V9H18V10.1z M18.2,3.5l-0.7-0.8l-2.8,2.7l0.7,0.8L18.2,3.5z"/>
</svg>
