<svg width="26" height="23" viewBox="0 0 26 23" fill="none" xmlns="http://www.w3.org/2000/svg">
<path fill-rule="evenodd" clip-rule="evenodd" d="M16.8519 18.1731L8.54175 13.598L22.7779 1.59375L16.8519 18.1731ZM7.62756 13.3653C7.59175 13.3941 7.56053 13.4299 7.53621 13.4719C7.53302 13.4774 7.53002 13.4829 7.52711 13.4885C7.50386 13.5336 7.49036 13.5812 7.48591 13.6289L6.95467 18.1923L5.77783 12.4224L18.6733 4.05127L7.62756 13.3653ZM1.27661 9.49887L20.2672 2.10107L5.3365 11.7933L1.27661 9.49887ZM23.8843 0.109039C23.7769 0.00404911 23.6181 -0.0284401 23.4784 0.0261004L0.244359 9.07699C0.106266 9.13073 0.0114847 9.25951 0.000984692 9.40771C-0.00960905 9.55587 0.0659534 9.69683 0.194953 9.7697L5.00995 12.4908L6.68104 20.6841C6.69149 20.742 6.71498 20.7959 6.74868 20.8423C6.75206 20.8469 6.75478 20.8505 6.75759 20.8541C6.81646 20.9279 6.89995 20.9795 6.99731 20.9951C7.00973 20.9971 7.02215 20.9985 7.03457 20.9992C7.04259 20.9998 7.05056 21 7.05853 21C7.1316 21 7.20084 20.9791 7.25985 20.9423C7.27982 20.9299 7.29881 20.9156 7.31643 20.8992C7.32192 20.8942 7.3267 20.8896 7.33134 20.8849L10.9559 17.24C11.1052 17.0898 11.1049 16.8466 10.9551 16.6968C10.8052 16.5469 10.5629 16.5472 10.4135 16.6975L7.56642 19.5606L8.18156 14.2761L16.8766 19.0632C16.9642 19.1111 17.0615 19.1214 17.1507 19.0998C17.1605 19.0974 17.1694 19.0949 17.1783 19.092C17.2663 19.0634 17.3435 19.0038 17.3927 18.9182C17.3952 18.9138 17.3974 18.9098 17.3995 18.9058C17.4095 18.8868 17.4175 18.8682 17.4238 18.8493L23.9775 0.513814C24.0281 0.372197 23.9917 0.213936 23.8843 0.109039Z" transform="translate(1 1)" fill="white" stroke="white"/>
</svg>
