<svg width="15" height="16" viewBox="0 0 15 16" version="1.1" xmlns="http://www.w3.org/2000/svg" xmlns:xlink="http://www.w3.org/1999/xlink">
<g id="Canvas" fill="none">
<path id="&#239;&#129;&#152; copy 3" d="M 12.1808 7.39174C 12.1808 7.55301 12.1239 7.7048 12.01 7.81864L 6.85882 12.9699C 6.74498 13.0837 6.58371 13.1501 6.42243 13.1501C 6.27065 13.1501 6.10938 13.0837 5.99554 12.9699L 2.56138 9.53571C 2.44754 9.42188 2.39062 9.27009 2.39062 9.10882C 2.39062 8.94754 2.44754 8.78627 2.56138 8.67243L 3.42467 7.81864C 3.5385 7.7048 3.69029 7.63839 3.85156 7.63839C 4.01283 7.63839 4.16462 7.7048 4.27846 7.81864L 6.42243 9.96261L 10.293 6.10156C 10.4068 5.98772 10.5586 5.92132 10.7199 5.92132C 10.8811 5.92132 11.0329 5.98772 11.1468 6.10156L 12.01 6.95536C 12.1239 7.0692 12.1808 7.23047 12.1808 7.39174ZM 14.5714 8.92857C 14.5714 4.90625 11.308 1.64286 7.28571 1.64286C 3.26339 1.64286 0 4.90625 0 8.92857C 0 12.9509 3.26339 16.2143 7.28571 16.2143C 11.308 16.2143 14.5714 12.9509 14.5714 8.92857Z" transform="translate(0 -1)" fill="#C30016"/>
</g>
</svg>
