<?xml version="1.0" encoding="utf-8"?>
<!-- Generator: Adobe Illustrator 21.0.2, SVG Export Plug-In . SVG Version: 6.00 Build 0)  -->
<svg version="1.1" id="Слой_1" xmlns="http://www.w3.org/2000/svg" xmlns:xlink="http://www.w3.org/1999/xlink" x="0px" y="0px"
	 viewBox="0 0 36 36" enable-background="new 0 0 36 36" xml:space="preserve">
<path fill="#1AB798" d="M18,0C8.1,0,0,8.1,0,18s8.1,18,18,18s18-8.1,18-18C36,8.1,27.9,0,18,0z M9.2,32.4c0.8-0.3,1.7-0.3,2.6-0.3
	h1.7c0.2,0,0.4-0.1,0.5-0.3l1.9-2.8c0.1-0.1,0.1-0.2,0.1-0.4c0.6,0.3,1.3,0.5,2,0.5c0.7,0,1.4-0.2,2.1-0.5c0,0.1,0,0.3,0.1,0.4
	l2,2.9c0.1,0.2,0.3,0.2,0.5,0.2h2c0.8-0.1,1.5,0,2.2,0.3C21.5,35.7,14.6,35.7,9.2,32.4L9.2,32.4z M23.7,13.4
	c0.6,2.2,1.2,6.1-0.1,7.1c-0.1,0.1-0.2,0.3-0.2,0.4c0,3.1-2.6,7.1-5.4,7.1s-5.4-4-5.4-7.1c0-0.1,0-0.2,0-0.2c-1-2.3-1.1-4.9-0.2-7.2
	c0-0.1,0-0.1,0-0.2c0-1.9,0.3-3.3,4.5-3.3c0.1,0,0.2,0,0.3-0.1c1-0.7,2.2-1.1,3.4-1.1c1.1,0,2.2,0.5,2.8,1.4
	c0.6,0.9,0.7,1.9,0.4,2.9C23.6,13.2,23.6,13.3,23.7,13.4L23.7,13.4z M27.9,31.7c-1-0.6-2.1-0.8-3.3-0.7h-1.7l-1.8-2.6
	c-0.1-0.1-0.2-0.2-0.3-0.2c2.2-1.7,3.6-4.2,3.7-7c1.8-1.9,0.6-6.8,0.3-7.9c0.4-1.3,0.2-2.7-0.5-3.8c-0.8-1.2-2.2-1.9-3.7-1.9
	c-1.4,0-2.7,0.5-3.8,1.2c-4.7,0.1-5.5,2.1-5.5,4.3c-0.9,2.6-0.8,5.4,0.2,7.9c0.1,2.8,1.5,5.4,3.8,7.1c-0.1,0-0.2,0.1-0.3,0.2
	L13.2,31h-1.4c-1.3-0.1-2.5,0.1-3.7,0.7c-7.6-5.5-9.3-16-3.8-23.6c5.5-7.6,16-9.3,23.6-3.8c7.6,5.5,9.3,16,3.8,23.6
	C30.6,29.3,29.4,30.6,27.9,31.7L27.9,31.7z"/>
</svg>
