<?xml version="1.0" encoding="UTF-8"?>
<svg width="48px" height="56px" viewBox="0 0 48 56" version="1.1" xmlns="http://www.w3.org/2000/svg" xmlns:xlink="http://www.w3.org/1999/xlink">
    <!-- Generator: Sketch 47.1 (45422) - http://www.bohemiancoding.com/sketch -->
    <title>Materials</title>
    <desc>Created with Sketch.</desc>
    <defs></defs>
    <g id="Page-1" stroke="none" stroke-width="1" fill="none" fill-rule="evenodd">
        <g id="Materials" fill-rule="nonzero">
            <g id="fruit">
                <path d="M43.5363196,38.1958366 C43.5363196,38.1958366 43.6908797,37.5598366 44,36.2878365 C44,31.2447732 44,28.0631537 44,26.7429779 C44,25.5487067 42.9683813,24.64855 40.9051439,24.042508 L7,24 L7,26.1053585 L39.5331108,26.1053585 C40.657931,26.1053585 41,27 40.7801767,27.6101403 L10.5178921,27.6101403 L10.5178921,29.0523746 L40.9110855,29.0523746 L40.9110855,30.3118247 L10.5178921,30.3118247 L10.5178921,31.754059 L40.9110855,31.754059 L40.9110855,32.9424601 L10.5178921,32.9424601 L10.5178921,34.3846945 L40.9110855,34.3846945 L40.9110855,35.6441446 L10.5178921,35.6441446 L10.5178921,37.0882007 L40.6136948,37.0882007 C41,38 40.5092356,38.2565623 39.5345338,38.2565623 L7,38.2565623 L7,38.8273835 L7,39.6963676 L7,39.9999959 L38.3690348,39.9999959 C38.437335,39.9999959 38.5148843,39.9999959 38.5981253,39.9999959 C39.5664239,39.9999959 41.4781201,40.0060685 42.9117144,39.5512333 C43.3281179,38.6476355 43.5363196,38.1958366 43.5363196,38.1958366 Z" id="Shape" fill="#AAAAAA"></path>
                <path d="M2.93197126,40.0042527 C2.45913785,40.209599 0,40.9520048 0,42.7436208 C0,44.7253947 0,51.0309837 0,52.2910079 C0,53.5510322 3.03300404,54.1998778 3.03300404,54.1998778 L13.9991019,55.5552848 C15.3583296,56.004252 17.1708577,55.9999993 18.084194,55.9999993 C18.1636731,55.9999993 18.2330489,55.9975691 18.3010777,55.9975691 L48,55.9975691 L48,55.7004853 L48,54.8268523 L48,54.256986 L18.2943422,54.256986 C17.3715761,54.256986 16.578132,53.7770346 16.1773687,53.0886993 L45.8015267,53.0886993 L45.8015267,51.6500602 L15.8985182,51.6500602 L15.8985182,50.3857832 L45.8015267,50.3857832 L45.8015267,48.9471442 L15.8985182,48.9471442 L15.8985182,47.7557712 L45.8015267,47.7557712 L45.8015267,46.3128794 L15.8985182,46.3128794 L15.8985182,45.0522476 L45.8015267,45.0522476 L45.8015267,43.6136086 L16.0217782,43.6136086 C16.3329591,42.7399756 17.2321509,42.1081408 18.2963628,42.1081408 L48,42.1081408 L48,41.2430133 L48,40.6652491 L48,40 L23.7703188,40 L2.93197126,40.0042527 Z" id="Shape" fill="#D0D0D0"></path>
                <path d="M23.771951,23.9808515 C23.953034,23.9920215 26,24 26.6853513,24 C32.471435,24 35.9838021,17.1613218 35.9838021,12.142816 C36.3416821,6.57379047 30.7002505,4.74351189 25.9004798,5.7381707 C25.8308325,5.63232198 25.7113605,5.45147492 25.5688514,5.20201237 C26.5492712,5.50945236 27.3887891,5.516899 28.1849113,5.43498593 C28.9879983,5.33445624 29.7364389,5.11052503 30.4275545,4.78074511 C31.1245633,4.44830567 31.764247,4.0089537 32.3433911,3.43822167 C32.920928,2.85685158 33.4475687,2.18027083 33.8172352,1.18295251 C32.8052063,0.849981162 31.947473,0.838279293 31.1331353,0.925511403 C30.3300483,1.02497728 29.5853579,1.2505042 28.8926351,1.58347554 C28.1993765,1.91963831 27.5618358,2.36058598 26.9767985,2.92759469 C26.4158698,3.49832672 25.8967295,4.16160989 25.5275988,5.12541832 C24.9966721,4.18394982 24.1442962,2.3818621 23.7644505,0 L22.6002691,0.185634184 C22.9908297,2.68185546 23.8662427,4.5733029 24.4486013,5.62487534 C19.8036619,4.9163804 14.6797634,6.82538064 15.0156777,12.142816 C15.0156777,17.0017508 18.2376691,23.5670309 23.771951,23.9808515 Z" id="Shape" fill="#D0021B"></path>
            </g>
        </g>
    </g>
</svg>