<?xml version="1.0" encoding="UTF-8"?>
<svg width="47px" height="33px" viewBox="0 0 47 33" version="1.1" xmlns="http://www.w3.org/2000/svg" xmlns:xlink="http://www.w3.org/1999/xlink">
    <!-- Generator: Sketch 47.1 (45422) - http://www.bohemiancoding.com/sketch -->
    <title>04_Result</title>
    <desc>Created with Sketch.</desc>
    <defs></defs>
    <g id="Page-1" stroke="none" stroke-width="1" fill="none" fill-rule="evenodd">
        <g id="04_Result">
            <g id="Group-9" transform="translate(0.000000, -1.000000)">
                <g id="path" transform="translate(0.000000, 1.000000)">
                    <path d="M16.8837209,33 C14.3442558,33 12.2790698,30.8856429 12.2790698,28.2857143 C12.2790698,25.6857857 14.3442558,23.5714286 16.8837209,23.5714286 C19.423186,23.5714286 21.4883721,25.6857857 21.4883721,28.2857143 C21.4883721,30.8856429 19.423186,33 16.8837209,33 Z" id="Fill-1" fill="#D0D0D0"></path>
                    <path d="M28.3953488,33 C25.8558837,33 23.7906977,30.8856429 23.7906977,28.2857143 C23.7906977,25.6857857 25.8558837,23.5714286 28.3953488,23.5714286 C30.934814,23.5714286 33,25.6857857 33,28.2857143 C33,30.8856429 30.934814,33 28.3953488,33 Z" id="Fill-1-Copy-2" fill="#D0D0D0"></path>
                    <path d="M16.8837209,1.77635684e-15 C19.423186,1.77635684e-15 21.4883721,2.11435714 21.4883721,4.71428571 C21.4883721,7.31421429 19.423186,9.42857143 16.8837209,9.42857143 C14.3442558,9.42857143 12.2790698,7.31421429 12.2790698,4.71428571 C12.2790698,2.11435714 14.3442558,1.77635684e-15 16.8837209,1.77635684e-15 Z" id="Fill-2" fill="#E4E3E3"></path>
                    <path d="M4.60465116,33 C2.06518605,33 -3.55271368e-15,30.8856429 -3.55271368e-15,28.2857143 C-3.55271368e-15,25.6857857 2.06518605,23.5714286 4.60465116,23.5714286 C7.14411628,23.5714286 9.20930233,25.6857857 9.20930233,28.2857143 C9.20930233,30.8856429 7.14411628,33 4.60465116,33 Z" id="Fill-3" fill="#E4E3E3"></path>
                    <path d="M4.60465116,1.77635684e-15 C7.14411628,1.77635684e-15 9.20930233,2.11435714 9.20930233,4.71428571 C9.20930233,7.31421429 7.14411628,9.42857143 4.60465116,9.42857143 C2.06518605,9.42857143 -3.55271368e-15,7.31421429 -3.55271368e-15,4.71428571 C-3.55271368e-15,2.11435714 2.06518605,1.77635684e-15 4.60465116,1.77635684e-15 Z" id="Fill-4" fill="#D0D0D0"></path>
                    <path d="M28.3953488,21.2142857 C25.8558837,21.2142857 23.7906977,19.0999286 23.7906977,16.5 C23.7906977,13.9000714 25.8558837,11.7857143 28.3953488,11.7857143 C30.934814,11.7857143 33,13.9000714 33,16.5 C33,19.0999286 30.934814,21.2142857 28.3953488,21.2142857 Z" id="Fill-5" fill="#D0D0D0"></path>
                </g>
                <path d="M44.8214706,9.51738335 L36.9836066,6.29803124 L45.6923443,0.899312471 L45.6923443,5.83598964 L45.6923443,19.9146191 C46.5016391,20.7727605 47,21.9440435 47,23.2352941 C47,25.8667685 44.9302344,28 42.3770492,28 C39.8238639,28 37.7540984,25.8667685 37.7540984,23.2352941 C37.7540984,22.0835014 38.1506242,21.0271621 38.810654,20.2033771 L30.9084711,9.83766234 C30.2088202,10.2765929 29.3871546,10.5294118 28.5081967,10.5294118 C27.5712438,10.5294118 26.699393,10.2421295 25.9710422,9.74836667 L20.825579,15.0766498 C21.2987632,15.824265 21.5737705,16.7172673 21.5737705,17.6764706 C21.5737705,20.307945 19.5040049,22.4411765 16.9508197,22.4411765 C14.6601504,22.4411765 12.7586019,20.7240665 12.3917877,18.4705882 L9.18198284,18.4705882 C8.81516857,20.7240665 6.91362009,22.4411765 4.62295082,22.4411765 C2.06976558,22.4411765 0,20.307945 0,17.6764706 C0,15.0449962 2.06976558,12.9117647 4.62295082,12.9117647 C7.17613606,12.9117647 9.24590164,15.0449962 9.24590164,17.6764706 L12.3278689,17.6764706 C12.3278689,15.0449962 14.3976344,12.9117647 16.9508197,12.9117647 C18.2516033,12.9117647 19.4269084,13.4654761 20.2669537,14.3566854 L25.275204,9.17049044 C24.4175267,8.30551382 23.8852459,7.09917631 23.8852459,5.76470588 C23.8852459,3.13323149 25.9550115,1 28.5081967,1 C31.061382,1 33.1311475,3.13323149 33.1311475,5.76470588 C33.1311475,7.20485327 32.511226,8.49577046 31.5314115,9.36945541 L39.3538344,19.6305446 C40.1643621,18.9078099 41.2211654,18.4705882 42.3770492,18.4705882 C43.2745626,18.4705882 44.1123393,18.7341942 44.8214706,19.1903845 L44.8214706,9.51738335 Z M4.62295082,21.6470588 C6.75060518,21.6470588 8.47540984,19.8693659 8.47540984,17.6764706 C8.47540984,15.4835753 6.75060518,13.7058824 4.62295082,13.7058824 C2.49529646,13.7058824 0.770491803,15.4835753 0.770491803,17.6764706 C0.770491803,19.8693659 2.49529646,21.6470588 4.62295082,21.6470588 Z M16.9508197,21.6470588 C19.078474,21.6470588 20.8032787,19.8693659 20.8032787,17.6764706 C20.8032787,15.4835753 19.078474,13.7058824 16.9508197,13.7058824 C14.8231653,13.7058824 13.0983607,15.4835753 13.0983607,17.6764706 C13.0983607,19.8693659 14.8231653,21.6470588 16.9508197,21.6470588 Z M28.5081967,9.73529412 C30.6358511,9.73529412 32.3606557,7.95760121 32.3606557,5.76470588 C32.3606557,3.57181055 30.6358511,1.79411765 28.5081967,1.79411765 C26.3805424,1.79411765 24.6557377,3.57181055 24.6557377,5.76470588 C24.6557377,7.95760121 26.3805424,9.73529412 28.5081967,9.73529412 Z" id="Combined-Shape" fill="#D0021B"></path>
            </g>
        </g>
    </g>
</svg>