<?xml version="1.0" ?><svg data-name="Livello 1" height="48" id="Livello_1" viewBox="0 0 48 48" width="48" xmlns="http://www.w3.org/2000/svg"><defs><style>.cls-1{fill:#40a5a8;}.cls-2{fill:#378c8c;}</style></defs><title/><g id="Download"><path class="cls-1" d="M42.934,20H36V4a4,4,0,0,0-4-4H16a4,4,0,0,0-4,4V20H5.066c-4.385,0-6.691,4.7-3.747,7.629L20.253,46.5a5.43,5.43,0,0,0,7.494,0L46.681,27.629C49.625,24.7,47.319,20,42.934,20Z"/><path class="cls-2" d="M42.934,20h-4c4.385,0,6.691,4.7,3.747,7.629L23.747,46.5A5.06,5.06,0,0,1,22,47.628,5.444,5.444,0,0,0,27.747,46.5L46.681,27.629C49.625,24.7,47.319,20,42.934,20Z"/><path class="cls-2" d="M36,20V4a4,4,0,0,0-4-4H28a4,4,0,0,1,4,4V20Z"/></g></svg>