<?xml version="1.0" encoding="UTF-8"?>
<svg width="587px" height="512px" viewBox="0 0 587 512" version="1.1" xmlns="http://www.w3.org/2000/svg" xmlns:xlink="http://www.w3.org/1999/xlink">
    <!-- Generator: Sketch 47.1 (45422) - http://www.bohemiancoding.com/sketch -->
    <title>Artboard</title>
    <desc>Created with Sketch.</desc>
    <defs>
        <filter x="-33.3%" y="-34.0%" width="166.6%" height="235.9%" filterUnits="objectBoundingBox" id="filter-1">
            <feOffset dx="0" dy="99" in="SourceAlpha" result="shadowOffsetOuter1"></feOffset>
            <feGaussianBlur stdDeviation="30" in="shadowOffsetOuter1" result="shadowBlurOuter1"></feGaussianBlur>
            <feColorMatrix values="0 0 0 0 0   0 0 0 0 0   0 0 0 0 0  0 0 0 0.128057065 0" type="matrix" in="shadowBlurOuter1" result="shadowMatrixOuter1"></feColorMatrix>
            <feMerge>
                <feMergeNode in="shadowMatrixOuter1"></feMergeNode>
                <feMergeNode in="SourceGraphic"></feMergeNode>
            </feMerge>
        </filter>
        <filter x="-124.1%" y="-124.1%" width="348.2%" height="348.2%" filterUnits="objectBoundingBox" id="filter-2">
            <feGaussianBlur stdDeviation="4.55078125" in="SourceGraphic"></feGaussianBlur>
        </filter>
        <filter x="-124.1%" y="-124.1%" width="348.2%" height="348.2%" filterUnits="objectBoundingBox" id="filter-3">
            <feGaussianBlur stdDeviation="4.55078125" in="SourceGraphic"></feGaussianBlur>
        </filter>
    </defs>
    <g id="Page-1" stroke="none" stroke-width="1" fill="none" fill-rule="evenodd">
        <g id="Artboard">
            <g id="Group-5" transform="translate(98.000000, 47.000000)">
                <g id="Group-18-Copy" filter="url(#filter-1)" transform="translate(0.000000, 56.000000)" fill="#FFFFFF">
                    <path d="M52.7135895,51.4582967 L21.0082935,62.7265093 C17.9676932,63.8066784 14.5844362,63.6595541 11.6482888,62.3228606 L7.17464483,60.2844974 C5.85114935,59.6809105 4.6524879,58.8560085 3.61687497,57.8387131 C1.11000384,55.3577195 -0.19947966,51.929849 0.0247120679,48.4328175 C0.259094328,44.9345285 2.00040167,41.7028237 4.81171498,39.5613478 L30.8396102,19.7561532 C35.8851979,15.9145741 41.4683362,12.8400535 47.4297981,10.6193567 L64.8849074,4.10690575 C72.1991625,1.38070499 79.8726339,0 87.6887728,0 C92.2019051,0 96.7354185,0.471552252 101.154288,1.39956708 L132.26726,7.95225718 L83.3998322,55.1125123 C82.6189826,54.6120382 81.8177519,54.1253963 80.9910449,53.6739636 C72.4284495,49.0125124 61.9194623,48.1863528 52.7135895,51.4582967 Z" id="Path"></path>
                    <path d="M314.538468,153.250544 C306.385383,158.178689 299.751047,165.231187 295.34642,173.638766 L294.40612,175.436685 C290.802913,182.317109 285.23374,187.837391 278.296165,191.401597 C265.986905,197.722781 256.725337,208.926561 252.877499,222.147147 L249.587725,233.455943 C249.543131,233.61916 249.42846,234 248.861477,234 C248.313606,234 248.195113,233.634343 248.145422,233.479983 C245.227691,224.461288 236.866925,218.405806 227.335244,218.405806 C226.728763,218.405806 226.11209,218.431111 225.509432,218.480456 L199.081664,220.665541 C189.505389,221.460117 180.889799,225.750577 174.638973,232.467783 L123.162034,216.548421 L98.933395,205.521776 C97.9586942,205.081469 96.8476628,205.032124 95.8423833,205.397781 L79.583356,211.269802 C76.7713763,200.193812 74.437191,188.998889 72.6445062,177.730582 C70.9626697,167.168283 72.8585581,156.295999 77.9703219,146.910382 C163.56792,146.910382 226.087945,146.910382 265.530394,146.910382 C271.15254,146.910382 279.140743,151.327842 289.495004,160.162764 C298.344002,151.290318 303.982074,146.872857 306.40922,146.910382 C310.340848,146.971167 316.547628,146.971167 325.02956,146.910382 L314.538468,153.250544 Z" id="Path"></path>
                    <path d="M417.500288,109.869703 C415.738025,112.958753 412.711556,114.999436 409.192112,115.472029 C407.767817,115.497506 407.157949,114.780337 406.944495,114.477164 C406.68022,114.098835 406.299052,113.317974 406.671326,112.312919 C407.75257,109.356348 407.351074,106.187047 405.559588,103.610079 C403.375499,100.475171 399.449476,98.9274614 395.707684,99.7681924 L373.676215,104.738696 C370.375307,105.485163 367.779557,107.859592 366.742782,111.088763 C365.704737,114.32303 366.430225,117.766206 368.677842,120.30878 L372.450127,124.558294 C373.204838,125.414311 373.065077,126.359496 372.965974,126.727634 C372.871952,127.095773 372.530172,127.991279 371.452739,128.364512 C359.372278,132.524857 347.614538,137.709365 336.368832,143.80976 C321.198105,143.80976 310.84908,143.80976 305.321758,143.80976 C297.75725,143.80976 289.288248,157.441638 288.510186,154.099432 C287.732123,150.757227 275.106147,143.80976 270.067618,143.80976 C227.949133,143.80976 164.771406,143.80976 80.5344359,143.80976 C89.5134665,126.244851 94.2373997,106.739891 94.2373997,86.9406749 C94.2373997,76.8442595 90.2275199,67.3350819 83.3690499,60.3289899 L135.357726,9.37559376 C139.69541,10.2558137 144.132197,10.7143942 148.558819,10.7143942 C155.741281,10.7143942 162.838616,9.56029982 169.662781,7.28013534 C175.737317,5.25091634 181.96559,4.23566992 188.273909,4.23566992 C194.879538,4.23566992 201.391146,5.34518012 207.625772,7.52980698 L219.337772,11.6391984 C225.517764,13.8085392 231.969655,15.0530759 238.515568,15.3320458 L300.405699,17.9943607 C300.902487,18.0185636 301.392923,17.9446812 301.8643,17.7892733 L322.615046,10.8532422 C324.715278,10.1513592 326.894284,9.71952918 329.092349,9.56029982 C329.092349,9.56029982 334.224131,9.19598304 334.31307,9.19598304 C336.314198,9.19598304 337.122273,10.7640738 337.321751,11.2468572 C337.574592,11.858298 338.006581,13.4314841 336.601344,14.844167 C332.198862,19.2529096 326.76977,22.6667872 320.888359,24.7112922 L286.200865,36.7783302 C281.917816,38.2712647 278.270045,41.2367524 275.937301,45.1321395 C272.99469,50.0542376 272.369575,55.9903083 274.220778,61.4181188 C276.077063,66.8472032 280.19621,71.1514913 285.531282,73.2316637 L297.953523,78.0735102 C298.947099,78.460756 299.353678,79.2428906 299.507415,79.6759945 C299.661153,80.1078245 299.845384,80.9740322 299.318102,81.9052056 C297.471982,85.1980688 297.452924,89.139314 299.26855,92.4487371 C301.085448,95.7581602 304.415579,97.8523447 308.1777,98.051063 L312.768225,98.2956393 C316.625638,98.4892622 320.25308,96.6485707 322.367288,93.4385068 L350.632112,50.5013537 C351.848036,48.6555669 353.893633,47.551152 356.101863,47.551152 L365.169832,47.551152 C367.665207,47.551152 369.914094,48.9447274 371.030914,51.1828553 L373.129875,55.3928797 C375.636686,60.4181584 380.674447,63.5339586 386.277606,63.5339586 C388.927989,63.5339586 391.538985,62.8065988 393.820906,61.4334048 C394.843705,60.8168687 396.004995,60.4933147 397.181531,60.4933147 C399.831914,60.4933147 402.209127,62.0703223 403.237008,64.5135376 L418.106344,99.8522655 C419.481087,103.13239 419.262551,106.784475 417.500288,109.869703 Z" id="Path"></path>
                </g>
                <circle id="Oval-4" fill="#D0021B" cx="296.5" cy="190.5" r="5.5"></circle>
                <circle id="Oval-4-Copy" fill="#D0021B" cx="275.5" cy="236.5" r="5.5"></circle>
                <polyline id="Path-2" stroke="#646464" stroke-width="2" stroke-dasharray="1,3" points="173 101 173 9 235 9"></polyline>
                <text id="93%-канадцев" font-family="HelveticaNeue-LightItalic, Helvetica Neue" font-size="42" font-style="italic" font-weight="300" line-spacing="20" fill="#D0021B">
                    <tspan x="248" y="40">93%</tspan>
                    <tspan x="351.656" y="68.2157898" font-family="HelveticaNeue-ThinItalic, Helvetica Neue"></tspan>
                    <tspan x="263.301" y="85.7359314" font-family="HelveticaNeue-ThinItalic, Helvetica Neue" font-size="20">канадцев</tspan>
                </text>
                <circle id="Oval-2" fill="#646464" cx="236" cy="9" r="3"></circle>
                <circle id="Oval-4" fill="#D0021B" opacity="0.67261096" filter="url(#filter-2)" cx="296.5" cy="190.5" r="5.5"></circle>
                <circle id="Oval-4-Copy-2" fill="#D0021B" opacity="0.67261096" filter="url(#filter-3)" cx="275.5" cy="236.5" r="5.5"></circle>
            </g>
        </g>
    </g>
</svg>