<?xml version="1.0" encoding="UTF-8"?>
<svg width="1214px" height="471px" viewBox="0 0 1214 471" version="1.1" xmlns="http://www.w3.org/2000/svg" xmlns:xlink="http://www.w3.org/1999/xlink">
    <!-- Generator: Sketch 47.1 (45422) - http://www.bohemiancoding.com/sketch -->
    <title>LinGasm_map</title>
    <desc>Created with Sketch.</desc>
    <defs>
        <filter x="-33.3%" y="-34.0%" width="166.6%" height="235.9%" filterUnits="objectBoundingBox" id="filter-1">
            <feOffset dx="0" dy="99" in="SourceAlpha" result="shadowOffsetOuter1"></feOffset>
            <feGaussianBlur stdDeviation="30" in="shadowOffsetOuter1" result="shadowBlurOuter1"></feGaussianBlur>
            <feColorMatrix values="0 0 0 0 0   0 0 0 0 0   0 0 0 0 0  0 0 0 0.128057065 0" type="matrix" in="shadowBlurOuter1" result="shadowMatrixOuter1"></feColorMatrix>
            <feMerge>
                <feMergeNode in="shadowMatrixOuter1"></feMergeNode>
                <feMergeNode in="SourceGraphic"></feMergeNode>
            </feMerge>
        </filter>
        <filter x="-124.1%" y="-124.1%" width="348.2%" height="348.2%" filterUnits="objectBoundingBox" id="filter-2">
            <feGaussianBlur stdDeviation="4.55078125" in="SourceGraphic"></feGaussianBlur>
        </filter>
        <filter x="-124.1%" y="-124.1%" width="348.2%" height="348.2%" filterUnits="objectBoundingBox" id="filter-3">
            <feGaussianBlur stdDeviation="4.55078125" in="SourceGraphic"></feGaussianBlur>
        </filter>
        <path d="M157.174944,259.039963 L157.27706,259.188911 C157.272239,259.183654 157.21395,259.143789 157.174944,259.039963 L157.174944,259.039963 Z M85.5510869,251.451494 C85.4682544,251.492235 85.5133959,251.468579 85.5563462,251.445799 L85.565988,251.441418 C85.5611671,251.444484 85.5563462,251.448427 85.5510869,251.451494 L85.5510869,251.451494 Z M268.996253,231.543261 L268.969519,231.380294 L263.585841,198.251162 C263.514842,196.761242 263.03231,195.29936 262.195657,194.076233 C261.70173,193.38231 261.383548,193.058567 261.016718,192.597704 L259.936388,191.290903 L255.613757,186.064576 L246.968931,175.611483 C241.203085,168.644215 235.429788,161.683518 229.7402,154.655794 L225.459642,149.400116 C224.912684,148.714078 224.581354,147.950938 224.480552,146.997232 L224.050174,143.634508 L222.390455,130.17573 L221.559938,123.446341 L221.353076,121.764103 C221.299169,121.260308 221.19267,120.476578 220.965209,119.85231 C220.520368,118.551204 219.69774,117.380209 218.60733,116.537338 C218.068261,116.117216 217.455563,115.76894 216.793779,115.516167 C216.176699,115.289678 215.697234,115.151682 215.141949,114.965059 L211.917616,113.913222 C210.140003,113.386646 208.894009,111.894975 208.687585,110.066417 L207.733038,103.353675 L207.257518,99.996647 L207.033563,98.3165996 C207.008582,98.0607593 206.934515,97.7085407 206.859133,97.3677124 C206.796022,97.0264459 206.706616,96.6908745 206.562426,96.3662552 C205.597799,93.670732 202.841974,91.8167658 200.022599,91.7615673 C198.610501,91.7103117 197.158083,92.0813677 195.935755,92.8550219 C195.355489,93.1962884 194.701594,93.8012806 194.24974,94.327418 L193.7339,94.9998751 L193.200966,95.8129567 C192.926611,96.2260687 192.483961,96.894583 192.232395,97.5613449 C191.963737,98.2320496 191.793251,98.9426199 191.729703,99.6641422 C191.677987,100.418083 191.700777,100.90304 191.684123,101.48569 L191.656074,103.181071 L191.511884,109.960839 L191.223065,123.521691 L191.150313,126.912013 C191.138918,128.231957 191.113937,128.697201 190.806711,129.376667 C190.541559,129.996992 190.008626,130.559929 189.511193,130.866148 C189.495853,130.882357 189.368756,130.954641 189.236837,131.026049 L188.931365,131.183758 L188.175354,131.567519 L186.663769,132.336354 L183.640162,133.873587 C183.341702,134.025163 183.240462,134.074228 183.083124,134.131179 C182.934113,134.192511 182.778528,134.231938 182.622505,134.267861 C182.311335,134.337954 181.989209,134.358544 181.673656,134.330945 C181.358542,134.30466 181.048687,134.233252 180.756801,134.121979 L180.545556,134.030858 L180.383835,133.944994 L179.732569,133.548529 L176.851399,131.757647 L165.328472,124.594556 L162.448178,122.804111 L161.728105,122.356391 L161.367849,122.132092 L161.204375,122.010305 C160.998389,121.84252 160.799854,121.669039 160.656979,121.449998 C160.091614,120.682477 160.029818,119.644221 160.417685,118.826758 C164.734619,114.239594 169.008603,109.61344 173.257168,104.964944 L173.507419,104.692018 L173.724361,104.307819 C174.979997,102.087178 175.294235,99.2085361 174.419015,96.757025 C173.613918,94.2844859 171.710522,92.2158592 169.28515,91.1302901 C168.664563,90.8928492 168.089118,90.6597892 167.259478,90.5213551 L166.678335,90.4236626 L166.341308,90.3925587 L166.040656,90.3689023 L165.890769,90.3575121 L165.815387,90.3513789 L165.40473,90.3434935 L162.993383,90.3873017 L158.170249,90.4902512 L138.878593,90.9002966 L137.672919,90.9370956 C137.645309,90.9401622 137.420477,90.9300863 137.305651,90.9046775 C137.165406,90.8797067 137.02779,90.8394031 136.894995,90.785957 C136.837143,90.7631767 136.736342,90.7106068 136.753873,90.7250635 L136.295883,90.4543284 L134.228576,89.2128019 L133.194264,88.5920386 C132.940946,88.4391477 132.319044,88.0580157 131.714235,87.7977946 C129.299382,86.7231776 126.450205,86.7398247 124.062962,87.8135655 C122.848085,88.3708068 121.826483,89.0888244 120.863172,90.1634414 C120.193499,90.9568093 120.308325,90.8499171 119.836311,91.5438402 L119.187237,92.5597541 C115.701696,97.9635049 112.321777,103.435597 108.909865,108.887098 L106.354328,112.977915 L105.076778,115.023324 L104.497389,115.945926 C104.397902,116.097064 104.287458,116.241632 104.15817,116.36999 C103.896962,116.620135 103.594119,116.844872 103.246573,116.981992 C102.860898,117.128749 102.65053,117.189205 101.942289,117.194462 C101.178389,117.230385 100.385563,116.923289 99.8280872,116.346334 C99.6777615,116.249079 99.0896066,115.333924 98.6644872,114.729808 L97.2984075,112.741351 L96.5472171,111.659724 C96.1957266,111.18309 95.7977798,110.741503 95.357321,110.347228 C94.4728973,109.566127 93.4355183,108.961573 92.3179363,108.607602 C91.2494403,108.230412 89.8710891,108.159443 89.082646,108.215518 L86.670422,108.28123 L86.0555328,108.298753 C85.7675911,108.307515 85.4805259,108.327229 85.1960903,108.365342 C84.6263426,108.43894 84.0657986,108.571679 83.5254148,108.760054 C82.455604,109.126292 81.4283051,109.765016 80.648189,110.497929 L66.7800923,124.000515 L59.8747504,130.741733 L56.4220795,134.111904 C55.0389074,135.420895 54.22373,137.31166 54.2066376,139.204177 L51.2145857,151.512551 L51.1777713,151.664565 L51.1804009,151.771458 C51.2058204,152.702821 50.9525018,153.645576 50.45463,154.452524 C49.9361596,155.290576 49.2603512,155.839932 48.2575953,156.389726 L42.4654527,159.858465 L30.8802911,166.795506 L7.57103703,180.431708 C5.70182638,181.483544 4.47423927,183.569694 4.45714684,185.7255 C2.96879059,194.066595 1.5834272,202.424776 0.010047075,210.750539 L0.0017199936,210.793909 L0.000843458709,210.861812 C-0.021508181,212.218554 0.400981636,213.584496 1.19643705,214.700293 L1.21572082,214.72833 L1.25472662,214.770386 C5.40073665,219.320314 9.5989005,223.820738 13.7028369,228.410531 L25.9519737,242.013439 C26.3420317,242.606603 26.5843936,243.287383 26.6422449,243.981306 C26.6764298,244.321697 26.6540781,244.707648 26.6028008,245.005544 L26.3446613,246.431503 L25.3305104,252.176521 L24.3163596,257.921538 L24.1914533,258.603633 C24.1239602,258.925185 24.0967876,259.254186 24.0678619,259.583186 C24.0314857,260.242938 24.0801334,260.907948 24.2054779,261.558939 C24.4623026,262.860483 25.049581,264.102886 25.9173505,265.127561 C26.3735869,265.652384 26.7895028,266.072506 27.4596137,266.536873 L27.7970796,266.761172 L28.1862611,266.999051 L28.8138601,267.370545 L31.3246943,268.856521 L36.3468009,271.828913 L38.8571968,273.315328 L39.4852341,273.68726 C39.7157628,273.816056 40.0817161,274.019765 40.3902564,274.150314 C41.0375774,274.446457 41.7313547,274.636585 42.4338975,274.761877 C43.8455569,274.994499 45.3155059,274.864826 46.6754498,274.384688 C48.0371467,273.906301 49.2774436,273.064744 50.2464529,271.981804 L50.354705,271.860455 L50.5269441,271.590158 L57.6851663,260.385753 C58.1655074,259.913938 58.9346668,259.645832 59.4395509,259.688326 L64.0277727,260.422552 L73.950586,262.03864 L75.1913211,262.241034 L75.5011762,262.291413 L75.8649381,262.325584 L75.9937888,262.332593 L76.2519283,262.344421 C76.5964065,262.366325 76.9430761,262.346612 77.2893073,262.327774 C78.6755473,262.23972 80.0394356,261.814779 81.2516833,261.136627 C82.4700668,260.463732 83.5223469,259.503017 84.3449749,258.373201 C84.7617673,257.794056 85.0891531,257.221482 85.3915576,256.520111 C85.5414451,256.159569 85.7259557,255.635622 85.7504986,255.524349 L85.84122,255.223386 L85.9634966,254.748504 C86.0726252,254.277127 86.1462541,254.122922 86.313234,253.232738 C86.4258688,252.543634 86.4512883,252.021877 86.4832818,251.566709 C86.4881027,251.378334 86.5003742,251.205291 86.5135223,251.042324 L88.7289642,250.10877 C94.911603,247.523206 101.075396,244.894709 107.224727,242.233794 L116.458145,238.262136 L118.7665,237.269441 L119.331427,237.027181 C119.384895,237.016229 119.43179,236.985125 119.48482,236.978115 C119.585622,236.944383 119.690806,236.931679 119.795552,236.925107 C120.203579,236.898823 120.604594,237.060913 120.889906,237.339534 C126.935367,244.395295 132.952341,251.476464 139.064857,258.475274 L139.170041,258.596185 L139.282676,258.709211 C141.047579,260.486512 143.515901,261.580405 146.015778,261.692116 C148.515218,261.826608 151.078206,260.981546 153.007897,259.388239 L153.005268,259.384296 L153.008336,259.387801 C153.053039,259.370277 153.138939,259.299308 153.308987,259.220453 C153.482103,259.143789 153.702113,259.066686 153.950172,258.997469 C154.450674,258.862978 155.060304,258.797265 155.622601,258.820046 C155.902215,258.833626 156.177447,258.856406 156.417618,258.904157 C156.657789,258.948404 156.874731,259.008421 157.023304,259.070191 C157.124543,259.091657 157.147772,259.133275 157.206499,259.152112 C157.274431,259.167883 157.261283,259.188035 157.280128,259.19373 L157.409855,259.38342 C161.358645,264.607995 165.296478,269.840455 169.293039,275.029108 L181.241086,290.626606 L181.01757,290.299358 C182.178978,292.150258 183.88866,293.583226 185.984893,294.37309 L186.374074,294.510648 L186.689627,294.610092 L187.140604,294.74327 L188.042997,295.008748 L189.847344,295.541018 L197.066047,297.669224 L204.283435,299.796992 L207.893006,300.861095 L209.697353,301.393366 L210.75796,301.698271 C211.272924,301.829258 211.797969,301.917751 212.326519,301.963312 C213.38362,302.055309 214.454746,301.973826 215.484675,301.724118 C216.556677,301.436298 216.948926,301.255808 217.588797,301.05648 L221.155855,299.86139 L228.291726,297.470773 L231.859223,296.275683 L233.64341,295.678138 L234.113671,295.519552 C234.360853,295.43544 234.604092,295.340815 234.844262,295.238303 C235.323289,295.030214 235.784784,294.784011 236.22349,294.501886 C237.10134,293.93895 237.886277,293.233198 238.535789,292.417926 C238.707152,292.20239 238.833811,292.034604 239.017445,291.759926 L239.229566,291.429174 L239.454398,291.040156 L239.891789,290.207799 L241.640476,286.877056 L255.554152,260.193873 L262.440649,246.814826 L265.883678,240.124864 L267.592921,236.773531 L268.026805,235.928907 C268.244186,235.503967 268.428697,235.06238 268.575516,234.608526 C268.868279,233.701256 269.011154,232.748426 268.999321,231.799101 L268.996253,231.543261 Z" id="path-4"></path>
        <filter x="-48.1%" y="-33.7%" width="197.8%" height="234.9%" filterUnits="objectBoundingBox" id="filter-5">
            <feOffset dx="2" dy="86" in="SourceAlpha" result="shadowOffsetOuter1"></feOffset>
            <feGaussianBlur stdDeviation="29.5" in="shadowOffsetOuter1" result="shadowBlurOuter1"></feGaussianBlur>
            <feColorMatrix values="0 0 0 0 0   0 0 0 0 0   0 0 0 0 0  0 0 0 0.113847373 0" type="matrix" in="shadowBlurOuter1"></feColorMatrix>
        </filter>
        <filter x="-113.8%" y="-113.8%" width="327.5%" height="327.5%" filterUnits="objectBoundingBox" id="filter-6">
            <feGaussianBlur stdDeviation="4.55078125" in="SourceGraphic"></feGaussianBlur>
        </filter>
        <filter x="-56.2%" y="-26.6%" width="234.6%" height="206.6%" filterUnits="objectBoundingBox" id="filter-7">
            <feOffset dx="18" dy="74" in="SourceAlpha" result="shadowOffsetOuter1"></feOffset>
            <feGaussianBlur stdDeviation="24" in="shadowOffsetOuter1" result="shadowBlurOuter1"></feGaussianBlur>
            <feColorMatrix values="0 0 0 0 0   0 0 0 0 0   0 0 0 0 0  0 0 0 0.173092165 0" type="matrix" in="shadowBlurOuter1" result="shadowMatrixOuter1"></feColorMatrix>
            <feMerge>
                <feMergeNode in="shadowMatrixOuter1"></feMergeNode>
                <feMergeNode in="SourceGraphic"></feMergeNode>
            </feMerge>
        </filter>
        <filter x="-107.9%" y="-107.9%" width="315.8%" height="315.8%" filterUnits="objectBoundingBox" id="filter-8">
            <feGaussianBlur stdDeviation="3.23660714" in="SourceGraphic"></feGaussianBlur>
        </filter>
        <path d="M41.0092955,221.571473 L65.4707205,210.780081 L65.4707205,210.780081 C67.9015177,209.707712 70.4564033,208.942241 73.0763952,208.50134 L94.4543968,204.903778 L94.4543968,204.903778 C94.6080424,204.877922 94.7618747,204.853189 94.9158816,204.82958 L117.465136,201.372808 L117.465136,201.372808 C118.999128,201.137649 120.381326,200.314561 121.318932,199.077901 L121.318932,199.077901 L121.318932,199.077901 C122.231693,197.87401 122.478985,196.292255 121.97723,194.867219 L120.591998,190.933016 L120.591998,190.933016 C119.198745,186.976034 119.550917,182.613597 121.560871,178.931349 L121.684418,178.705008 L121.684418,178.705008 C123.811714,174.80779 124.586447,170.3151 123.887296,165.930481 L122.633194,158.06557 L122.633194,158.06557 C122.081983,154.608739 119.161257,152.025473 115.66298,151.900694 L115.66298,151.900694 L115.66298,151.900694 C112.142863,151.775137 109.18022,149.225887 108.531002,145.763878 L105.771431,131.048228 L105.771431,131.048228 C105.192495,127.961004 104.162175,124.975838 102.713617,122.188761 L98.8724792,114.798278 L98.8724792,114.798278 C97.5600492,112.273117 95.6112975,110.134211 93.2188841,108.59302 L93.2188841,108.59302 L93.2188841,108.59302 C90.888885,107.092036 89.2812341,104.696394 88.7752622,101.971355 L86.9666682,92.2307138 L86.9666682,92.2307138 C85.8074636,85.9875244 82.7682727,80.247597 78.2561538,75.779717 L78.2561538,75.779717 L78.2561538,75.779717 C73.9557829,71.5215089 72.2006611,65.3215681 73.6309053,59.4410982 L80.2525226,32.2162219 L80.2525226,32.2162219 C80.6248786,30.6852751 80.6906483,29.0957837 80.4460433,27.5393084 L80.4460433,27.5393084 L80.4460433,27.5393084 C80.2394022,26.2244062 79.0276632,25.3099713 77.7065132,25.4719311 L60.5548424,27.5745538 L60.5548424,27.5745538 C58.3264016,27.8477383 56.2984336,26.2626899 56.0252491,24.0342491 C55.9930538,23.7716232 55.9865758,23.5064814 56.0059074,23.2425966 L56.0059074,23.2425966 L56.0059074,23.2425966 C56.2419473,20.0205494 57.3940059,16.9330933 59.326343,14.3440053 L61.5878733,11.3138398 L61.5878733,11.3138398 C63.1658476,9.19955314 63.9076617,6.57710548 63.6710254,3.94951838 L63.6710254,3.94951838 L63.6710254,3.94951838 C63.4650532,1.66242204 61.5039129,-0.062691193 59.2092242,0.0247036643 L51.8068524,0.306628274 L51.8068524,0.306628274 C44.9121284,0.569218757 38.9265271,5.13699115 36.853503,11.7179291 L32.0646675,26.920371 L32.0646675,26.920371 C30.9984288,30.3052088 30.5026579,33.8438318 30.5976526,37.3913615 L30.9669969,51.184347 L30.9669969,51.184347 C31.1127075,56.62584 32.6441126,61.9402195 35.4163687,66.6248405 L38.1408465,71.2287246 L38.1408465,71.2287246 C41.2226806,76.4364775 42.7647168,82.4113306 42.5880436,88.4600642 L42.2349697,100.548203 L42.2349697,100.548203 C42.1714697,102.722242 43.3282035,104.749492 45.2321358,105.800929 L45.2321358,105.800929 L45.2321358,105.800929 C47.2183081,106.897782 49.5573755,107.16558 51.7400591,106.546016 L55.0881529,105.595645 L55.0881529,105.595645 C58.4760956,104.633963 62.0021629,106.600836 62.9638448,109.988779 C63.0197418,110.1857 63.0661243,110.385199 63.1028311,110.586582 L66.7231289,130.448455 L66.7231289,130.448455 C67.7433662,136.045736 65.3159316,141.710317 60.5593429,144.832064 L60.5593429,144.832064 L60.5593429,144.832064 C55.5249015,148.136164 51.9662325,153.26214 50.630369,159.13395 L46.1356145,178.890716 L46.1356145,178.890716 C45.9134127,179.867407 46.1176105,180.892508 46.6971103,181.709503 L46.6971103,181.709503 L46.6971103,181.709503 C47.2974087,182.55582 48.0703425,183.265226 48.9649147,183.790917 L56.9964153,188.510588 L56.9964153,188.510588 C58.6097015,189.458628 59.1489904,191.534993 58.2009509,193.148279 C57.8222785,193.792669 57.2411586,194.293762 56.5480792,194.573533 L56.5480792,194.573533 L56.5480792,194.573533 C52.3775948,196.257004 48.7642818,199.078836 46.1203881,202.717083 L39.911537,211.261047 L39.911537,211.261047 C38.2682052,213.522427 37.3372485,216.222841 37.2378781,219.016495 L37.2378781,219.016495 L37.2378781,219.016495 C37.185104,220.500163 38.3450731,221.745696 39.8287416,221.79847 C40.23435,221.812898 40.6379601,221.735292 41.0092955,221.571473 Z" id="path-9"></path>
        <filter x="-179.6%" y="-32.0%" width="401.4%" height="228.1%" filterUnits="objectBoundingBox" id="filter-10">
            <feOffset dx="-27" dy="72" in="SourceAlpha" result="shadowOffsetOuter1"></feOffset>
            <feGaussianBlur stdDeviation="35" in="shadowOffsetOuter1" result="shadowBlurOuter1"></feGaussianBlur>
            <feColorMatrix values="0 0 0 0 0   0 0 0 0 0   0 0 0 0 0  0 0 0 0.178187274 0" type="matrix" in="shadowBlurOuter1"></feColorMatrix>
        </filter>
        <path d="M25.9349651,100.261377 L30.9723159,119.705747 L29.8080913,121.466641 L29.8080913,121.466641 C28.190008,123.913999 24.8943171,124.586258 22.4469597,122.968175 C22.1371034,122.763312 21.8495887,122.526514 21.5891342,122.261669 L20.9674083,121.629461 L20.9674083,121.629461 C18.4997334,119.120183 14.8946839,118.0928 11.4749513,118.92426 L9.40758776,119.42691 L9.40758776,119.42691 C5.85052448,120.291759 2.25789818,118.141152 1.33987551,114.597439 L0.670466588,112.013415 L0.670466588,112.013415 C0.0369793484,109.568054 0.352428746,106.973549 1.55342925,104.751232 L5.40722854,97.6202075 L5.40722854,97.6202075 C7.48254006,93.7800757 11.808851,91.7297299 16.0951762,92.5549246 L18.1450041,92.9495533 L18.1450041,92.9495533 C21.9351486,93.6792243 24.9669966,96.5249817 25.9349651,100.261377 Z" id="path-11"></path>
        <filter x="-548.6%" y="-225.6%" width="1020.9%" height="1002.3%" filterUnits="objectBoundingBox" id="filter-12">
            <feOffset dx="-27" dy="72" in="SourceAlpha" result="shadowOffsetOuter1"></feOffset>
            <feGaussianBlur stdDeviation="35" in="shadowOffsetOuter1" result="shadowBlurOuter1"></feGaussianBlur>
            <feColorMatrix values="0 0 0 0 0   0 0 0 0 0   0 0 0 0 0  0 0 0 0.178187274 0" type="matrix" in="shadowBlurOuter1"></feColorMatrix>
        </filter>
        <path d="M23.8552845,34.4281655 L27.5368028,47.2408585 L18.8827733,33.584892 L18.8827733,33.584892 L18.8827733,33.584892 C19.7751828,32.3236214 21.5210854,32.0246004 22.782356,32.9170098 C23.3013068,33.2841924 23.6797257,33.8171729 23.8552845,34.4281655 Z" id="path-13"></path>
        <filter x="-1941.3%" y="-478.5%" width="3358.6%" height="2014.0%" filterUnits="objectBoundingBox" id="filter-14">
            <feOffset dx="-27" dy="72" in="SourceAlpha" result="shadowOffsetOuter1"></feOffset>
            <feGaussianBlur stdDeviation="35" in="shadowOffsetOuter1" result="shadowBlurOuter1"></feGaussianBlur>
            <feColorMatrix values="0 0 0 0 0   0 0 0 0 0   0 0 0 0 0  0 0 0 0.178187274 0" type="matrix" in="shadowBlurOuter1"></feColorMatrix>
        </filter>
        <path d="M28.3285933,11.2658388 L25.6080531,16.5986625 L25.6080531,16.5986625 C24.9500099,17.8885637 23.3708891,18.4007859 22.0809879,17.7427428 C21.3331096,17.3612127 20.8131727,16.6446058 20.6824967,15.8152622 L20.050424,11.8037713 L20.050424,11.8037713 C19.706582,9.62155504 21.1968787,7.57378017 23.3790949,7.2299381 C23.3832621,7.2292815 23.3874303,7.2286315 23.3915995,7.22798809 L25.2061524,6.9479578 L25.2061524,6.9479578 C26.8397191,6.69585814 28.3683537,7.81575848 28.6204534,9.44932521 C28.716309,10.0704547 28.6141959,10.7059983 28.3285933,11.2658388 Z" id="path-15"></path>
        <filter x="-1941.2%" y="-638.7%" width="3358.5%" height="2654.6%" filterUnits="objectBoundingBox" id="filter-16">
            <feOffset dx="-27" dy="72" in="SourceAlpha" result="shadowOffsetOuter1"></feOffset>
            <feGaussianBlur stdDeviation="35" in="shadowOffsetOuter1" result="shadowBlurOuter1"></feGaussianBlur>
            <feColorMatrix values="0 0 0 0 0   0 0 0 0 0   0 0 0 0 0  0 0 0 0.178187274 0" type="matrix" in="shadowBlurOuter1"></feColorMatrix>
        </filter>
        <path d="M35.5270683,83.1277475 L35.5270683,83.1277475 L27.7839893,91.0239326 L30.9259867,82.7106821 L30.9259867,82.7106821 C31.3941015,81.4721213 32.7776354,80.8475513 34.0161962,81.315666 C34.8027483,81.6129438 35.3760679,82.3005612 35.5270683,83.1277475 Z" id="path-17"></path>
        <filter x="-2169.7%" y="-719.8%" width="3742.0%" height="2979.2%" filterUnits="objectBoundingBox" id="filter-18">
            <feOffset dx="-27" dy="72" in="SourceAlpha" result="shadowOffsetOuter1"></feOffset>
            <feGaussianBlur stdDeviation="35" in="shadowOffsetOuter1" result="shadowBlurOuter1"></feGaussianBlur>
            <feColorMatrix values="0 0 0 0 0   0 0 0 0 0   0 0 0 0 0  0 0 0 0.178187274 0" type="matrix" in="shadowBlurOuter1"></feColorMatrix>
        </filter>
        <filter x="-107.9%" y="-107.9%" width="315.8%" height="315.8%" filterUnits="objectBoundingBox" id="filter-19">
            <feGaussianBlur stdDeviation="3.23660714" in="SourceGraphic"></feGaussianBlur>
        </filter>
    </defs>
    <g id="Page-1" stroke="none" stroke-width="1" fill="none" fill-rule="evenodd">
        <g id="LinGasm_map">
            <g id="Block-1" transform="translate(28.000000, 1.000000)">
                <circle id="Oval-4-Copy-13" fill="#C7C7C7" cx="431.5" cy="383.5" r="6.5"></circle>
                <circle id="Oval-4-Copy-18" fill="#C7C7C7" opacity="0.506227355" cx="719" cy="202" r="5"></circle>
                <circle id="Oval-4-Copy-20" fill="#C7C7C7" opacity="0.506227355" cx="760.5" cy="241.5" r="7.5"></circle>
                <circle id="Oval-4-Copy-19" fill="#C7C7C7" opacity="0.219769022" cx="1169" cy="59" r="11"></circle>
                <circle id="Oval-4-Copy-15" fill="#C7C7C7" opacity="0.375226449" cx="254.5" cy="413.5" r="12.5"></circle>
                <circle id="Oval-4-Copy-22" fill="#C7C7C7" opacity="0.713881341" cx="20" cy="184" r="7"></circle>
                <g id="Group-5" transform="translate(0.000000, 16.000000)">
                    <g id="Group-18-Copy" filter="url(#filter-1)" transform="translate(0.000000, 56.000000)" fill="#FFFFFF">
                        <path d="M52.7135895,51.4582967 L21.0082935,62.7265093 C17.9676932,63.8066784 14.5844362,63.6595541 11.6482888,62.3228606 L7.17464483,60.2844974 C5.85114935,59.6809105 4.6524879,58.8560085 3.61687497,57.8387131 C1.11000384,55.3577195 -0.19947966,51.929849 0.0247120679,48.4328175 C0.259094328,44.9345285 2.00040167,41.7028237 4.81171498,39.5613478 L30.8396102,19.7561532 C35.8851979,15.9145741 41.4683362,12.8400535 47.4297981,10.6193567 L64.8849074,4.10690575 C72.1991625,1.38070499 79.8726339,0 87.6887728,0 C92.2019051,0 96.7354185,0.471552252 101.154288,1.39956708 L132.26726,7.95225718 L83.3998322,55.1125123 C82.6189826,54.6120382 81.8177519,54.1253963 80.9910449,53.6739636 C72.4284495,49.0125124 61.9194623,48.1863528 52.7135895,51.4582967 Z" id="Path"></path>
                        <path d="M314.538468,153.250544 C306.385383,158.178689 299.751047,165.231187 295.34642,173.638766 L294.40612,175.436685 C290.802913,182.317109 285.23374,187.837391 278.296165,191.401597 C265.986905,197.722781 256.725337,208.926561 252.877499,222.147147 L249.587725,233.455943 C249.543131,233.61916 249.42846,234 248.861477,234 C248.313606,234 248.195113,233.634343 248.145422,233.479983 C245.227691,224.461288 236.866925,218.405806 227.335244,218.405806 C226.728763,218.405806 226.11209,218.431111 225.509432,218.480456 L199.081664,220.665541 C189.505389,221.460117 180.889799,225.750577 174.638973,232.467783 L123.162034,216.548421 L98.933395,205.521776 C97.9586942,205.081469 96.8476628,205.032124 95.8423833,205.397781 L79.583356,211.269802 C76.7713763,200.193812 74.437191,188.998889 72.6445062,177.730582 C70.9626697,167.168283 72.8585581,156.295999 77.9703219,146.910382 C163.56792,146.910382 226.087945,146.910382 265.530394,146.910382 C271.15254,146.910382 279.140743,151.327842 289.495004,160.162764 C298.344002,151.290318 303.982074,146.872857 306.40922,146.910382 C310.340848,146.971167 316.547628,146.971167 325.02956,146.910382 L314.538468,153.250544 Z" id="Path"></path>
                        <path d="M417.500288,109.869703 C415.738025,112.958753 412.711556,114.999436 409.192112,115.472029 C407.767817,115.497506 407.157949,114.780337 406.944495,114.477164 C406.68022,114.098835 406.299052,113.317974 406.671326,112.312919 C407.75257,109.356348 407.351074,106.187047 405.559588,103.610079 C403.375499,100.475171 399.449476,98.9274614 395.707684,99.7681924 L373.676215,104.738696 C370.375307,105.485163 367.779557,107.859592 366.742782,111.088763 C365.704737,114.32303 366.430225,117.766206 368.677842,120.30878 L372.450127,124.558294 C373.204838,125.414311 373.065077,126.359496 372.965974,126.727634 C372.871952,127.095773 372.530172,127.991279 371.452739,128.364512 C359.372278,132.524857 347.614538,137.709365 336.368832,143.80976 C321.198105,143.80976 310.84908,143.80976 305.321758,143.80976 C297.75725,143.80976 289.288248,157.441638 288.510186,154.099432 C287.732123,150.757227 275.106147,143.80976 270.067618,143.80976 C227.949133,143.80976 164.771406,143.80976 80.5344359,143.80976 C89.5134665,126.244851 94.2373997,106.739891 94.2373997,86.9406749 C94.2373997,76.8442595 90.2275199,67.3350819 83.3690499,60.3289899 L135.357726,9.37559376 C139.69541,10.2558137 144.132197,10.7143942 148.558819,10.7143942 C155.741281,10.7143942 162.838616,9.56029982 169.662781,7.28013534 C175.737317,5.25091634 181.96559,4.23566992 188.273909,4.23566992 C194.879538,4.23566992 201.391146,5.34518012 207.625772,7.52980698 L219.337772,11.6391984 C225.517764,13.8085392 231.969655,15.0530759 238.515568,15.3320458 L300.405699,17.9943607 C300.902487,18.0185636 301.392923,17.9446812 301.8643,17.7892733 L322.615046,10.8532422 C324.715278,10.1513592 326.894284,9.71952918 329.092349,9.56029982 C329.092349,9.56029982 334.224131,9.19598304 334.31307,9.19598304 C336.314198,9.19598304 337.122273,10.7640738 337.321751,11.2468572 C337.574592,11.858298 338.006581,13.4314841 336.601344,14.844167 C332.198862,19.2529096 326.76977,22.6667872 320.888359,24.7112922 L286.200865,36.7783302 C281.917816,38.2712647 278.270045,41.2367524 275.937301,45.1321395 C272.99469,50.0542376 272.369575,55.9903083 274.220778,61.4181188 C276.077063,66.8472032 280.19621,71.1514913 285.531282,73.2316637 L297.953523,78.0735102 C298.947099,78.460756 299.353678,79.2428906 299.507415,79.6759945 C299.661153,80.1078245 299.845384,80.9740322 299.318102,81.9052056 C297.471982,85.1980688 297.452924,89.139314 299.26855,92.4487371 C301.085448,95.7581602 304.415579,97.8523447 308.1777,98.051063 L312.768225,98.2956393 C316.625638,98.4892622 320.25308,96.6485707 322.367288,93.4385068 L350.632112,50.5013537 C351.848036,48.6555669 353.893633,47.551152 356.101863,47.551152 L365.169832,47.551152 C367.665207,47.551152 369.914094,48.9447274 371.030914,51.1828553 L373.129875,55.3928797 C375.636686,60.4181584 380.674447,63.5339586 386.277606,63.5339586 C388.927989,63.5339586 391.538985,62.8065988 393.820906,61.4334048 C394.843705,60.8168687 396.004995,60.4933147 397.181531,60.4933147 C399.831914,60.4933147 402.209127,62.0703223 403.237008,64.5135376 L418.106344,99.8522655 C419.481087,103.13239 419.262551,106.784475 417.500288,109.869703 Z" id="Path"></path>
                    </g>
                    <circle id="Oval-4" fill="#D0021B" cx="296.5" cy="190.5" r="5.5"></circle>
                    <circle id="Oval-4-Copy" fill="#D0021B" cx="275.5" cy="236.5" r="5.5"></circle>
                    <polyline id="Path-2" stroke="#646464" stroke-width="2" stroke-dasharray="1,3" points="173 101 173 9 235 9"></polyline>
                    <text id="93%-канадцев" font-family="HelveticaNeue-LightItalic, Helvetica Neue" font-size="42" font-style="italic" font-weight="300" line-spacing="20" fill="#D0021B">
                        <tspan x="248" y="40">93%</tspan>
                        <tspan x="351.656" y="68.2157898" font-family="HelveticaNeue-ThinItalic, Helvetica Neue"></tspan>
                        <tspan x="263.301" y="85.7359314" font-family="HelveticaNeue-ThinItalic, Helvetica Neue" font-size="20">канадцев</tspan>
                    </text>
                    <circle id="Oval-2" fill="#646464" cx="236" cy="9" r="3"></circle>
                    <circle id="Oval-4" fill="#D0021B" opacity="0.67261096" filter="url(#filter-2)" cx="296.5" cy="190.5" r="5.5"></circle>
                    <circle id="Oval-4-Copy-2" fill="#D0021B" opacity="0.67261096" filter="url(#filter-3)" cx="275.5" cy="236.5" r="5.5"></circle>
                </g>
                <g id="Group-6" transform="translate(441.000000, 50.000000)">
                    <g id="Fill-1-Copy">
                        <use fill="black" fill-opacity="1" filter="url(#filter-5)" xlink:href="#path-4"></use>
                        <use fill="#FFFFFF" fill-rule="evenodd" xlink:href="#path-4"></use>
                    </g>
                    <circle id="Oval-4-Copy-3" fill="#D0021B" cx="232" cy="273" r="6"></circle>
                    <path d="M123,145 L123,53" id="Path-2-Copy" stroke="#646464" stroke-width="2" stroke-dasharray="1,3"></path>
                    <text id="96%-австралийцев" font-family="HelveticaNeue-LightItalic, Helvetica Neue" font-size="42" font-style="italic" font-weight="300" line-spacing="20" fill="#D0021B">
                        <tspan x="64.079" y="40">96%</tspan>
                        <tspan x="167.735" y="68.2157898" font-family="HelveticaNeue-ThinItalic, Helvetica Neue"></tspan>
                        <tspan x="59" y="85.7359314" font-family="HelveticaNeue-ThinItalic, Helvetica Neue" font-size="20">австралийцев</tspan>
                    </text>
                    <circle id="Combined-Shape" fill="#646464" cx="123" cy="51" r="3"></circle>
                    <circle id="Oval-4-Copy-4" fill="#D0021B" opacity="0.67261096" filter="url(#filter-6)" cx="232" cy="273" r="6"></circle>
                </g>
                <g id="Group-7" transform="translate(678.000000, 49.000000)">
                    <g id="Group-17-Copy" filter="url(#filter-7)" transform="translate(134.000000, 187.500000) rotate(-37.000000) translate(-134.000000, -187.500000) translate(53.000000, 73.000000)" fill="#FFFFFF">
                        <path d="M79.4295301,110.97718 C78.8840722,110.968909 78.3539726,111.160912 77.9364921,111.517961 L69.0563438,119.138504 C68.5650583,119.559397 68.2724584,120.172473 68.2512744,120.825342 L68.0024359,128.679066 L58.3513729,138.755449 C58.0150528,139.107399 57.7979686,139.5593 57.7317138,140.045386 L55.916649,153.227536 L38.9126279,166.737131 L24.7922137,177.150882 C24.6481128,177.258812 24.5170884,177.383714 24.4018774,177.522978 L16.3853477,187.078425 C16.3406283,187.126689 12.9982434,190.731071 9.60325485,194.535246 C7.89446894,196.450035 6.18303999,198.403886 4.8753074,199.977782 C4.2214411,200.76473 3.66966429,201.451072 3.24565295,202.031755 C3.03355985,202.322097 2.8556015,202.577568 2.68942443,202.860291 C2.52329732,203.143013 2.21613955,203.161239 2.21613955,204.408213 C2.21613955,204.164356 2.200661,204.590941 2.14295369,205.018454 C2.08599582,205.44622 2.00166571,206.020174 1.89899166,206.685448 C1.69364357,208.016249 1.41435767,209.706851 1.13783723,211.358985 C0.584846313,214.663249 0.0351379656,217.828506 0.0351379656,217.828506 C-0.178835537,219.056089 0.605826088,220.234202 1.80628774,220.48776 L22.0403419,224.714779 L40.3275962,228.941798 C41.1475821,229.132682 42.0040996,228.846194 42.5525128,228.197606 L57.5316668,210.4213 C57.7256458,210.191543 57.8732054,209.925175 57.9659156,209.637415 L62.6841052,194.966876 C62.7273366,194.832789 62.7583682,194.694948 62.7768092,194.55509 L64.2747236,183.129236 L85.879836,173.216576 C86.4465787,172.955781 86.8830265,172.469637 87.0869265,171.872038 C87.2908264,171.27444 87.2442614,170.6179 86.9581408,170.056235 L83.9623095,164.191988 L86.7971249,159.751633 L97.8387617,145.155516 C98.0292092,144.905591 98.167058,144.6185 98.2437371,144.312095 L100.463775,135.282546 C100.520945,135.050829 100.542343,134.811483 100.527203,134.573081 L99.6928601,121.594344 C99.6448559,120.856215 99.2513871,120.186356 98.6350109,119.793411 C98.0186346,119.400467 97.2542431,119.332183 96.5799279,119.609827 L86.8849524,123.598704 L81.4348817,112.267117 C81.0587884,111.48734 80.2835879,110.988694 79.4295301,110.97718 L79.4295301,110.97718 Z" id="Shape"></path>
                        <path d="M76.2403235,0 C75.4010234,0.046397195 74.6565943,0.565172156 74.3087038,1.34609989 C73.9608133,2.12702761 74.0671578,3.04059396 74.584643,3.71659122 L81.071421,12.2003298 L81.5666696,17.9982118 C81.6060017,18.4618281 81.7820565,18.902399 82.0716284,19.2618531 L89.7042731,28.7168595 L98.5653281,43.5237597 L102.789503,59.1383981 L101.454276,72.4586605 L100.026796,82.176307 L95.1180128,83.4845471 C94.5831096,83.6276065 94.118318,83.9661923 93.8119191,84.4359944 L90.4957004,89.505425 C90.0214626,90.2327089 89.9913732,91.1712739 90.4180145,91.9286421 L93.7293781,97.8454545 C93.9850513,98.3016927 94.385972,98.6549206 94.8655347,98.8464557 L102.498179,101.903971 L107.795393,104.609651 L110.519256,110.382754 L105.629896,118.613766 C105.55335,118.745735 105.489915,118.88518 105.440536,119.030023 L102.954585,126.071725 C102.721314,126.731228 102.795203,127.463277 103.155311,128.060393 C103.515418,128.657509 104.122495,129.054612 104.804483,129.139153 L109.912334,129.763538 L110.286199,133.564373 C110.375259,134.476003 110.985405,135.247001 111.839892,135.527665 C112.69438,135.80833 113.630598,135.545248 114.223905,134.857747 L118.127626,130.338372 L125.274735,126.017216 C125.59847,125.820824 125.86888,125.544839 126.061304,125.21443 L134.621328,110.561152 C134.676426,110.468952 134.725099,110.372909 134.766987,110.273736 L139.180522,99.569954 C139.337853,99.1884884 139.391526,98.7707926 139.335894,98.3608217 L138.452216,91.8245766 L143.564924,89.2130516 L149.104903,92.9841549 C149.806124,93.4607602 150.709124,93.4988657 151.446502,93.0829677 C152.183881,92.6670697 152.632751,91.8664791 152.610484,91.0069281 L152.387136,81.9235773 L153.843747,81.809604 C154.520595,81.7556361 155.137638,81.3934322 155.523707,80.8234682 L158.009658,77.1613855 C158.270293,76.7752429 158.409199,76.317087 158.407798,75.8481903 L158.407798,69.4308761 L161.685174,63.7767037 C161.992992,63.2461817 162.079466,62.6118207 161.92523,62.0156895 C161.770993,61.4195583 161.388934,60.9114696 160.864616,60.6052127 L155.062447,57.2255931 C154.722686,57.0258749 154.337791,56.9199817 153.94571,56.9183543 L151.736515,56.9183543 C151.290705,56.9180389 150.854798,57.0525415 150.48383,57.3048804 L145.516783,60.6894551 C145.41359,60.758817 145.316154,60.8367146 145.22546,60.9223618 L141.326596,64.638951 L140.45263,65.0849438 L129.605726,59.1681289 C129.37443,59.0403331 129.12302,58.9548024 128.862854,58.9154016 L126.503142,58.5734769 L122.725663,42.8944166 C122.467553,41.8243324 121.502686,41.0909597 120.424217,41.1451414 L114.903658,41.427602 C113.872401,41.4811831 113.008433,42.2425327 112.806137,43.2759876 L109.805518,38.7070564 L106.698079,27.0567819 C106.694956,27.0435391 106.691719,27.0303249 106.688366,27.0171408 L103.377003,15.4659741 C103.198778,14.8443253 102.772241,14.3280458 102.202003,14.0437582 L88.7671865,7.3241623 L77.5367096,0.336970926 C77.1473621,0.0951894558 76.6953918,-0.0205639801 76.2403235,0.00495539136 L76.2403235,0 Z" id="Shape"></path>
                    </g>
                    <circle id="Oval-4-Copy-5" fill="#D0021B" cx="166.5" cy="174.5" r="4.5"></circle>
                    <text id="94%-новозеландцев" font-family="HelveticaNeue-LightItalic, Helvetica Neue" font-size="42" font-style="italic" font-weight="300" line-spacing="20" fill="#D0021B">
                        <tspan x="23.829" y="40">94%</tspan>
                        <tspan x="127.485" y="68.2157898" font-family="HelveticaNeue-ThinItalic, Helvetica Neue"></tspan>
                        <tspan x="13" y="85.7359314" font-family="HelveticaNeue-ThinItalic, Helvetica Neue" font-size="20">новозеландцев</tspan>
                    </text>
                    <polyline id="Path-3" stroke="#646464" stroke-width="2" stroke-dasharray="1,3" points="138 138 138 58 79 58.1489233"></polyline>
                    <circle id="Combined-Shape-Copy" fill="#646464" cx="79" cy="58" r="3"></circle>
                    <circle id="Oval-4-Copy-10" fill="#D0021B" opacity="0.733752264" filter="url(#filter-8)" cx="166.5" cy="174.5" r="4.5"></circle>
                </g>
                <g id="Group-8" transform="translate(857.000000, 0.000000)">
                    <g id="Group-19-Copy" transform="translate(116.500000, 127.000000) rotate(-36.000000) translate(-116.500000, -127.000000) translate(54.000000, 16.000000)" fill-rule="nonzero">
                        <g id="Shape">
                            <use fill="black" fill-opacity="1" filter="url(#filter-10)" xlink:href="#path-9"></use>
                            <use fill="#FFFFFF" fill-rule="evenodd" xlink:href="#path-9"></use>
                        </g>
                        <g id="Shape">
                            <use fill="black" fill-opacity="1" filter="url(#filter-12)" xlink:href="#path-11"></use>
                            <use fill="#FFFFFF" fill-rule="evenodd" xlink:href="#path-11"></use>
                        </g>
                        <g id="Shape">
                            <use fill="black" fill-opacity="1" filter="url(#filter-14)" xlink:href="#path-13"></use>
                            <use fill="#FFFFFF" fill-rule="evenodd" xlink:href="#path-13"></use>
                        </g>
                        <g id="Shape">
                            <use fill="black" fill-opacity="1" filter="url(#filter-16)" xlink:href="#path-15"></use>
                            <use fill="#FFFFFF" fill-rule="evenodd" xlink:href="#path-15"></use>
                        </g>
                        <g id="Shape">
                            <use fill="black" fill-opacity="1" filter="url(#filter-18)" xlink:href="#path-17"></use>
                            <use fill="#FFFFFF" fill-rule="evenodd" xlink:href="#path-17"></use>
                        </g>
                    </g>
                    <circle id="Oval-4-Copy-6" fill="#D0021B" cx="167.5" cy="142.5" r="5.5"></circle>
                    <text id="96%-британцев" font-family="HelveticaNeue-LightItalic, Helvetica Neue" font-size="42" font-style="italic" font-weight="300" line-spacing="20" fill="#D0021B">
                        <tspan x="100" y="56">96%</tspan>
                        <tspan x="203.656" y="84.2157898" font-family="HelveticaNeue-ThinItalic, Helvetica Neue"></tspan>
                        <tspan x="109.921" y="101.735931" font-family="HelveticaNeue-ThinItalic, Helvetica Neue" font-size="20">британцев</tspan>
                    </text>
                    <path d="M145,139.895673 L145,75.7252759" id="Path-4" stroke="#646464" stroke-width="2" stroke-dasharray="1,3"></path>
                    <circle id="Combined-Shape-Copy-2" fill="#646464" cx="146" cy="72" r="3"></circle>
                    <circle id="Oval-4-Copy-11" fill="#D0021B" opacity="0.733752264" filter="url(#filter-19)" cx="167.5" cy="142.5" r="4.5"></circle>
                </g>
            </g>
        </g>
    </g>
</svg>